<?xml version="1.0" encoding="UTF-8" standalone="no"?>
<!DOCTYPE svg PUBLIC "-//W3C//DTD SVG 1.1//EN"
 "http://www.w3.org/Graphics/SVG/1.1/DTD/svg11.dtd">
<!-- Generated by graphviz version 12.1.2 (20240928.0832)
 -->
<!-- Title: public.dtb_maker Pages: 1 -->
<svg width="858pt" height="2516pt"
 viewBox="0.00 0.00 857.94 2516.00" xmlns="http://www.w3.org/2000/svg" xmlns:xlink="http://www.w3.org/1999/xlink">
<g id="graph0" class="graph" transform="scale(1 1) rotate(0) translate(4 2512)">
<title>public.dtb_maker</title>
<polygon fill="white" stroke="none" points="-4,4 -4,-2512 853.94,-2512 853.94,4 -4,4"/>
<!-- public.dtb_maker -->
<g id="node1" class="node">
<title>public.dtb_maker</title>
<polygon fill="#efefef" stroke="none" points="260.2,-861.4 260.2,-907.4 591.7,-907.4 591.7,-861.4 260.2,-861.4"/>
<polygon fill="none" stroke="black" points="260.2,-861.4 260.2,-907.4 591.7,-907.4 591.7,-861.4 260.2,-861.4"/>
<text text-anchor="start" x="300.47" y="-885.2" font-family="Arial Bold" font-size="18.00">public.dtb_maker</text>
<text text-anchor="start" x="426.94" y="-885.2" font-family="Arial" font-size="14.00">    </text>
<text text-anchor="start" x="458.05" y="-885.2" font-family="Arial" font-size="14.00" fill="#666666">[BASE TABLE]</text>
<text text-anchor="start" x="402.61" y="-870.8" font-family="Arial" font-size="14.00" fill="#333333">メーカー</text>
<polygon fill="none" stroke="black" points="260.2,-830.6 260.2,-861.4 591.7,-861.4 591.7,-830.6 260.2,-830.6"/>
<text text-anchor="start" x="267.2" y="-842.8" font-family="Arial" font-size="14.00">maker_id </text>
<text text-anchor="start" x="328.67" y="-842.8" font-family="Arial" font-size="14.00" fill="#666666">[integer]</text>
<text text-anchor="start" x="379.25" y="-842.8" font-family="Arial" font-size="14.00"> メーカーID</text>
<polygon fill="none" stroke="black" points="260.2,-799.8 260.2,-830.6 591.7,-830.6 591.7,-799.8 260.2,-799.8"/>
<text text-anchor="start" x="267.2" y="-812" font-family="Arial" font-size="14.00">name </text>
<text text-anchor="start" x="306.11" y="-812" font-family="Arial" font-size="14.00" fill="#666666">[text]</text>
<text text-anchor="start" x="336.45" y="-812" font-family="Arial" font-size="14.00"> メーカー名</text>
<polygon fill="none" stroke="black" points="260.2,-769 260.2,-799.8 591.7,-799.8 591.7,-769 260.2,-769"/>
<text text-anchor="start" x="267.2" y="-781.2" font-family="Arial" font-size="14.00">rank </text>
<text text-anchor="start" x="298.32" y="-781.2" font-family="Arial" font-size="14.00" fill="#666666">[integer]</text>
<text text-anchor="start" x="348.91" y="-781.2" font-family="Arial" font-size="14.00"> 表示順</text>
<polygon fill="none" stroke="black" points="260.2,-738.2 260.2,-769 591.7,-769 591.7,-738.2 260.2,-738.2"/>
<text text-anchor="start" x="267.2" y="-750.4" font-family="Arial" font-size="14.00">creator_id </text>
<text text-anchor="start" x="333.34" y="-750.4" font-family="Arial" font-size="14.00" fill="#666666">[integer]</text>
<text text-anchor="start" x="383.93" y="-750.4" font-family="Arial" font-size="14.00"> 作成者ID</text>
<polygon fill="none" stroke="black" points="260.2,-707.4 260.2,-738.2 591.7,-738.2 591.7,-707.4 260.2,-707.4"/>
<text text-anchor="start" x="267.2" y="-719.6" font-family="Arial" font-size="14.00">create_date </text>
<text text-anchor="start" x="345.03" y="-719.6" font-family="Arial" font-size="14.00" fill="#666666">[timestamp without time zone]</text>
<text text-anchor="start" x="530.22" y="-719.6" font-family="Arial" font-size="14.00"> 作成日時</text>
<polygon fill="none" stroke="black" points="260.2,-676.6 260.2,-707.4 591.7,-707.4 591.7,-676.6 260.2,-676.6"/>
<text text-anchor="start" x="267.2" y="-688.8" font-family="Arial" font-size="14.00">update_date </text>
<text text-anchor="start" x="348.94" y="-688.8" font-family="Arial" font-size="14.00" fill="#666666">[timestamp without time zone]</text>
<text text-anchor="start" x="534.13" y="-688.8" font-family="Arial" font-size="14.00"> 更新日時</text>
<polygon fill="none" stroke="black" points="260.2,-645.8 260.2,-676.6 591.7,-676.6 591.7,-645.8 260.2,-645.8"/>
<text text-anchor="start" x="267.2" y="-658" font-family="Arial" font-size="14.00">del_flg </text>
<text text-anchor="start" x="312.34" y="-658" font-family="Arial" font-size="14.00" fill="#666666">[smallint]</text>
<text text-anchor="start" x="367.58" y="-658" font-family="Arial" font-size="14.00"> 削除フラグ</text>
<polygon fill="none" stroke="black" stroke-width="3" points="258.7,-644.3 258.7,-908.9 593.2,-908.9 593.2,-644.3 258.7,-644.3"/>
</g>
<!-- public.dtb_member -->
<g id="node4" class="node">
<title>public.dtb_member</title>
<polygon fill="#efefef" stroke="none" points="243.48,-474.4 243.48,-520.4 608.41,-520.4 608.41,-474.4 243.48,-474.4"/>
<polygon fill="none" stroke="black" points="243.48,-474.4 243.48,-520.4 608.41,-520.4 608.41,-474.4 243.48,-474.4"/>
<text text-anchor="start" x="293.47" y="-498.2" font-family="Arial Bold" font-size="18.00">public.dtb_member</text>
<text text-anchor="start" x="433.94" y="-498.2" font-family="Arial" font-size="14.00">    </text>
<text text-anchor="start" x="465.05" y="-498.2" font-family="Arial" font-size="14.00" fill="#666666">[BASE TABLE]</text>
<text text-anchor="start" x="367.6" y="-483.8" font-family="Arial" font-size="14.00" fill="#333333">管理画面メンバー情報</text>
<polygon fill="none" stroke="black" points="243.48,-443.6 243.48,-474.4 608.41,-474.4 608.41,-443.6 243.48,-443.6"/>
<text text-anchor="start" x="250.48" y="-455.8" font-family="Arial" font-size="14.00">member_id </text>
<text text-anchor="start" x="324.4" y="-455.8" font-family="Arial" font-size="14.00" fill="#666666">[integer]</text>
<text text-anchor="start" x="374.99" y="-455.8" font-family="Arial" font-size="14.00"> メンバーID</text>
<polygon fill="none" stroke="black" points="243.48,-412.8 243.48,-443.6 608.41,-443.6 608.41,-412.8 243.48,-412.8"/>
<text text-anchor="start" x="250.48" y="-425" font-family="Arial" font-size="14.00">name </text>
<text text-anchor="start" x="289.39" y="-425" font-family="Arial" font-size="14.00" fill="#666666">[text]</text>
<text text-anchor="start" x="319.74" y="-425" font-family="Arial" font-size="14.00"> 名前</text>
<polygon fill="none" stroke="black" points="243.48,-382 243.48,-412.8 608.41,-412.8 608.41,-382 243.48,-382"/>
<text text-anchor="start" x="250.48" y="-394.2" font-family="Arial" font-size="14.00">department </text>
<text text-anchor="start" x="325.19" y="-394.2" font-family="Arial" font-size="14.00" fill="#666666">[text]</text>
<text text-anchor="start" x="355.54" y="-394.2" font-family="Arial" font-size="14.00"> 部門</text>
<polygon fill="none" stroke="black" points="243.48,-351.2 243.48,-382 608.41,-382 608.41,-351.2 243.48,-351.2"/>
<text text-anchor="start" x="250.48" y="-363.4" font-family="Arial" font-size="14.00">login_id </text>
<text text-anchor="start" x="302.63" y="-363.4" font-family="Arial" font-size="14.00" fill="#666666">[text]</text>
<text text-anchor="start" x="332.98" y="-363.4" font-family="Arial" font-size="14.00"> ログインID</text>
<polygon fill="none" stroke="black" points="243.48,-320.4 243.48,-351.2 608.41,-351.2 608.41,-320.4 243.48,-320.4"/>
<text text-anchor="start" x="250.48" y="-332.6" font-family="Arial" font-size="14.00">password </text>
<text text-anchor="start" x="314.29" y="-332.6" font-family="Arial" font-size="14.00" fill="#666666">[text]</text>
<text text-anchor="start" x="344.63" y="-332.6" font-family="Arial" font-size="14.00"> パスワード</text>
<polygon fill="none" stroke="black" points="243.48,-289.6 243.48,-320.4 608.41,-320.4 608.41,-289.6 243.48,-289.6"/>
<text text-anchor="start" x="250.48" y="-301.8" font-family="Arial" font-size="14.00">salt </text>
<text text-anchor="start" x="276.16" y="-301.8" font-family="Arial" font-size="14.00" fill="#666666">[text]</text>
<text text-anchor="start" x="306.5" y="-301.8" font-family="Arial" font-size="14.00"> 暗号化付与文字列</text>
<polygon fill="none" stroke="black" points="243.48,-258.8 243.48,-289.6 608.41,-289.6 608.41,-258.8 243.48,-258.8"/>
<text text-anchor="start" x="250.48" y="-271" font-family="Arial" font-size="14.00">authority </text>
<text text-anchor="start" x="308.07" y="-271" font-family="Arial" font-size="14.00" fill="#666666">[smallint]</text>
<text text-anchor="start" x="363.3" y="-271" font-family="Arial" font-size="14.00"> 権限</text>
<polygon fill="none" stroke="black" points="243.48,-228 243.48,-258.8 608.41,-258.8 608.41,-228 243.48,-228"/>
<text text-anchor="start" x="250.48" y="-240.2" font-family="Arial" font-size="14.00">rank </text>
<text text-anchor="start" x="281.61" y="-240.2" font-family="Arial" font-size="14.00" fill="#666666">[integer]</text>
<text text-anchor="start" x="332.19" y="-240.2" font-family="Arial" font-size="14.00"> 表示順</text>
<polygon fill="none" stroke="black" points="243.48,-197.2 243.48,-228 608.41,-228 608.41,-197.2 243.48,-197.2"/>
<text text-anchor="start" x="250.48" y="-209.4" font-family="Arial" font-size="14.00">work </text>
<text text-anchor="start" x="283.93" y="-209.4" font-family="Arial" font-size="14.00" fill="#666666">[smallint]</text>
<text text-anchor="start" x="339.17" y="-209.4" font-family="Arial" font-size="14.00"> 稼動フラグ</text>
<polygon fill="none" stroke="black" points="243.48,-166.4 243.48,-197.2 608.41,-197.2 608.41,-166.4 243.48,-166.4"/>
<text text-anchor="start" x="250.48" y="-178.6" font-family="Arial" font-size="14.00">del_flg </text>
<text text-anchor="start" x="295.63" y="-178.6" font-family="Arial" font-size="14.00" fill="#666666">[smallint]</text>
<text text-anchor="start" x="350.86" y="-178.6" font-family="Arial" font-size="14.00"> 削除フラグ</text>
<polygon fill="none" stroke="black" points="243.48,-135.6 243.48,-166.4 608.41,-166.4 608.41,-135.6 243.48,-135.6"/>
<text text-anchor="start" x="250.48" y="-147.8" font-family="Arial" font-size="14.00">creator_id </text>
<text text-anchor="start" x="316.63" y="-147.8" font-family="Arial" font-size="14.00" fill="#666666">[integer]</text>
<text text-anchor="start" x="367.21" y="-147.8" font-family="Arial" font-size="14.00"> 作成者ID</text>
<polygon fill="none" stroke="black" points="243.48,-104.8 243.48,-135.6 608.41,-135.6 608.41,-104.8 243.48,-104.8"/>
<text text-anchor="start" x="250.48" y="-117" font-family="Arial" font-size="14.00">create_date </text>
<text text-anchor="start" x="328.32" y="-117" font-family="Arial" font-size="14.00" fill="#666666">[timestamp without time zone]</text>
<text text-anchor="start" x="513.5" y="-117" font-family="Arial" font-size="14.00"> 作成日時</text>
<polygon fill="none" stroke="black" points="243.48,-74 243.48,-104.8 608.41,-104.8 608.41,-74 243.48,-74"/>
<text text-anchor="start" x="250.48" y="-86.2" font-family="Arial" font-size="14.00">update_date </text>
<text text-anchor="start" x="332.23" y="-86.2" font-family="Arial" font-size="14.00" fill="#666666">[timestamp without time zone]</text>
<text text-anchor="start" x="517.41" y="-86.2" font-family="Arial" font-size="14.00"> 更新日付</text>
<polygon fill="none" stroke="black" points="243.48,-43.2 243.48,-74 608.41,-74 608.41,-43.2 243.48,-43.2"/>
<text text-anchor="start" x="250.48" y="-55.4" font-family="Arial" font-size="14.00">login_date </text>
<text text-anchor="start" x="318.99" y="-55.4" font-family="Arial" font-size="14.00" fill="#666666">[timestamp without time zone]</text>
<text text-anchor="start" x="504.17" y="-55.4" font-family="Arial" font-size="14.00"> 最終ログイン日時</text>
</g>
<!-- public.dtb_maker&#45;&gt;public.dtb_member -->
<g id="edge3" class="edge">
<title>public.dtb_maker:creator_id&#45;&gt;public.dtb_member:member_id</title>
<path fill="none" stroke="black" stroke-dasharray="5,2" d="M602.83,-753C724.62,-738.27 737.1,-459 609.41,-459"/>
<polygon fill="black" stroke="black" points="603.01,-752.99 592.76,-749.09 597.69,-753.3 593.36,-753.56 593.36,-753.56 593.36,-753.56 597.69,-753.3 593.3,-758.07 603.01,-752.99"/>
<text text-anchor="start" x="599.7" y="-763.6" font-family="Arial" font-size="10.00">Additional Relation</text>
</g>
<!-- public.dtb_products -->
<g id="node2" class="node">
<title>public.dtb_products</title>
<polygon fill="#efefef" stroke="none" points="43.2,-2418.8 43.2,-2464.8 374.7,-2464.8 374.7,-2418.8 43.2,-2418.8"/>
<polygon fill="none" stroke="black" points="43.2,-2418.8 43.2,-2464.8 374.7,-2464.8 374.7,-2418.8 43.2,-2418.8"/>
<text text-anchor="start" x="74.96" y="-2442.6" font-family="Arial Bold" font-size="18.00">public.dtb_products</text>
<text text-anchor="start" x="218.44" y="-2442.6" font-family="Arial" font-size="14.00">    </text>
<text text-anchor="start" x="249.56" y="-2442.6" font-family="Arial" font-size="14.00" fill="#666666">[BASE TABLE]</text>
<text text-anchor="start" x="185.61" y="-2428.2" font-family="Arial" font-size="14.00" fill="#333333">商品情報</text>
<polygon fill="none" stroke="black" points="43.2,-2388 43.2,-2418.8 374.7,-2418.8 374.7,-2388 43.2,-2388"/>
<text text-anchor="start" x="50.2" y="-2400.2" font-family="Arial" font-size="14.00">product_id </text>
<text text-anchor="start" x="119.47" y="-2400.2" font-family="Arial" font-size="14.00" fill="#666666">[integer]</text>
<text text-anchor="start" x="170.05" y="-2400.2" font-family="Arial" font-size="14.00"> 商品ID</text>
<polygon fill="none" stroke="black" points="43.2,-2357.2 43.2,-2388 374.7,-2388 374.7,-2357.2 43.2,-2357.2"/>
<text text-anchor="start" x="50.2" y="-2369.4" font-family="Arial" font-size="14.00">name </text>
<text text-anchor="start" x="89.11" y="-2369.4" font-family="Arial" font-size="14.00" fill="#666666">[text]</text>
<text text-anchor="start" x="119.45" y="-2369.4" font-family="Arial" font-size="14.00"> 商品名</text>
<polygon fill="none" stroke="black" points="43.2,-2326.4 43.2,-2357.2 374.7,-2357.2 374.7,-2326.4 43.2,-2326.4"/>
<text text-anchor="start" x="50.2" y="-2338.6" font-family="Arial" font-size="14.00">maker_id </text>
<text text-anchor="start" x="111.67" y="-2338.6" font-family="Arial" font-size="14.00" fill="#666666">[integer]</text>
<text text-anchor="start" x="162.25" y="-2338.6" font-family="Arial" font-size="14.00"> メーカーID</text>
<polygon fill="none" stroke="black" points="43.2,-2295.6 43.2,-2326.4 374.7,-2326.4 374.7,-2295.6 43.2,-2295.6"/>
<text text-anchor="start" x="50.2" y="-2307.8" font-family="Arial" font-size="14.00">status </text>
<text text-anchor="start" x="91.44" y="-2307.8" font-family="Arial" font-size="14.00" fill="#666666">[smallint]</text>
<text text-anchor="start" x="146.68" y="-2307.8" font-family="Arial" font-size="14.00"> 表示ステータス</text>
<polygon fill="none" stroke="black" points="43.2,-2264.8 43.2,-2295.6 374.7,-2295.6 374.7,-2264.8 43.2,-2264.8"/>
<text text-anchor="start" x="50.2" y="-2277" font-family="Arial" font-size="14.00">comment1 </text>
<text text-anchor="start" x="119.45" y="-2277" font-family="Arial" font-size="14.00" fill="#666666">[text]</text>
<text text-anchor="start" x="149.79" y="-2277" font-family="Arial" font-size="14.00"> コメント1(メーカーURL)</text>
<polygon fill="none" stroke="black" points="43.2,-2234 43.2,-2264.8 374.7,-2264.8 374.7,-2234 43.2,-2234"/>
<text text-anchor="start" x="50.2" y="-2246.2" font-family="Arial" font-size="14.00">comment2 </text>
<text text-anchor="start" x="119.45" y="-2246.2" font-family="Arial" font-size="14.00" fill="#666666">[text]</text>
<text text-anchor="start" x="149.79" y="-2246.2" font-family="Arial" font-size="14.00"> コメント2</text>
<polygon fill="none" stroke="black" points="43.2,-2203.2 43.2,-2234 374.7,-2234 374.7,-2203.2 43.2,-2203.2"/>
<text text-anchor="start" x="50.2" y="-2215.4" font-family="Arial" font-size="14.00">comment3 </text>
<text text-anchor="start" x="119.45" y="-2215.4" font-family="Arial" font-size="14.00" fill="#666666">[text]</text>
<text text-anchor="start" x="149.79" y="-2215.4" font-family="Arial" font-size="14.00"> コメント3(検索ワード)</text>
<polygon fill="none" stroke="black" points="43.2,-2172.4 43.2,-2203.2 374.7,-2203.2 374.7,-2172.4 43.2,-2172.4"/>
<text text-anchor="start" x="50.2" y="-2184.6" font-family="Arial" font-size="14.00">comment4 </text>
<text text-anchor="start" x="119.45" y="-2184.6" font-family="Arial" font-size="14.00" fill="#666666">[text]</text>
<text text-anchor="start" x="149.79" y="-2184.6" font-family="Arial" font-size="14.00"> コメント4</text>
<polygon fill="none" stroke="black" points="43.2,-2141.6 43.2,-2172.4 374.7,-2172.4 374.7,-2141.6 43.2,-2141.6"/>
<text text-anchor="start" x="50.2" y="-2153.8" font-family="Arial" font-size="14.00">comment5 </text>
<text text-anchor="start" x="119.45" y="-2153.8" font-family="Arial" font-size="14.00" fill="#666666">[text]</text>
<text text-anchor="start" x="149.79" y="-2153.8" font-family="Arial" font-size="14.00"> コメント5</text>
<polygon fill="none" stroke="black" points="43.2,-2110.8 43.2,-2141.6 374.7,-2141.6 374.7,-2110.8 43.2,-2110.8"/>
<text text-anchor="start" x="50.2" y="-2123" font-family="Arial" font-size="14.00">comment6 </text>
<text text-anchor="start" x="119.45" y="-2123" font-family="Arial" font-size="14.00" fill="#666666">[text]</text>
<text text-anchor="start" x="149.79" y="-2123" font-family="Arial" font-size="14.00"> コメント6</text>
<polygon fill="none" stroke="black" points="43.2,-2080 43.2,-2110.8 374.7,-2110.8 374.7,-2080 43.2,-2080"/>
<text text-anchor="start" x="50.2" y="-2092.2" font-family="Arial" font-size="14.00">note </text>
<text text-anchor="start" x="81.34" y="-2092.2" font-family="Arial" font-size="14.00" fill="#666666">[text]</text>
<text text-anchor="start" x="111.68" y="-2092.2" font-family="Arial" font-size="14.00"> 備考</text>
<polygon fill="none" stroke="black" points="43.2,-2049.2 43.2,-2080 374.7,-2080 374.7,-2049.2 43.2,-2049.2"/>
<text text-anchor="start" x="50.2" y="-2061.4" font-family="Arial" font-size="14.00">main_list_comment </text>
<text text-anchor="start" x="174.69" y="-2061.4" font-family="Arial" font-size="14.00" fill="#666666">[text]</text>
<text text-anchor="start" x="205.03" y="-2061.4" font-family="Arial" font-size="14.00"> メイン一覧コメント</text>
<polygon fill="none" stroke="black" points="43.2,-2018.4 43.2,-2049.2 374.7,-2049.2 374.7,-2018.4 43.2,-2018.4"/>
<text text-anchor="start" x="50.2" y="-2030.6" font-family="Arial" font-size="14.00">main_list_image </text>
<text text-anchor="start" x="155.25" y="-2030.6" font-family="Arial" font-size="14.00" fill="#666666">[text]</text>
<text text-anchor="start" x="185.59" y="-2030.6" font-family="Arial" font-size="14.00"> メイン一覧画像</text>
<polygon fill="none" stroke="black" points="43.2,-1987.6 43.2,-2018.4 374.7,-2018.4 374.7,-1987.6 43.2,-1987.6"/>
<text text-anchor="start" x="50.2" y="-1999.8" font-family="Arial" font-size="14.00">main_comment </text>
<text text-anchor="start" x="149.79" y="-1999.8" font-family="Arial" font-size="14.00" fill="#666666">[text]</text>
<text text-anchor="start" x="180.14" y="-1999.8" font-family="Arial" font-size="14.00"> メインコメント</text>
<polygon fill="none" stroke="black" points="43.2,-1956.8 43.2,-1987.6 374.7,-1987.6 374.7,-1956.8 43.2,-1956.8"/>
<text text-anchor="start" x="50.2" y="-1969" font-family="Arial" font-size="14.00">main_image </text>
<text text-anchor="start" x="130.35" y="-1969" font-family="Arial" font-size="14.00" fill="#666666">[text]</text>
<text text-anchor="start" x="160.7" y="-1969" font-family="Arial" font-size="14.00"> メイン画像</text>
<polygon fill="none" stroke="black" points="43.2,-1926 43.2,-1956.8 374.7,-1956.8 374.7,-1926 43.2,-1926"/>
<text text-anchor="start" x="50.2" y="-1938.2" font-family="Arial" font-size="14.00">main_large_image </text>
<text text-anchor="start" x="169.27" y="-1938.2" font-family="Arial" font-size="14.00" fill="#666666">[text]</text>
<text text-anchor="start" x="199.61" y="-1938.2" font-family="Arial" font-size="14.00"> メイン拡大画像</text>
<polygon fill="none" stroke="black" points="43.2,-1895.2 43.2,-1926 374.7,-1926 374.7,-1895.2 43.2,-1895.2"/>
<text text-anchor="start" x="50.2" y="-1907.4" font-family="Arial" font-size="14.00">sub_title1 </text>
<text text-anchor="start" x="114.02" y="-1907.4" font-family="Arial" font-size="14.00" fill="#666666">[text]</text>
<text text-anchor="start" x="144.37" y="-1907.4" font-family="Arial" font-size="14.00"> サブタイトル1</text>
<polygon fill="none" stroke="black" points="43.2,-1864.4 43.2,-1895.2 374.7,-1895.2 374.7,-1864.4 43.2,-1864.4"/>
<text text-anchor="start" x="50.2" y="-1876.6" font-family="Arial" font-size="14.00">sub_comment1 </text>
<text text-anchor="start" x="149.81" y="-1876.6" font-family="Arial" font-size="14.00" fill="#666666">[text]</text>
<text text-anchor="start" x="180.15" y="-1876.6" font-family="Arial" font-size="14.00"> サブコメント1</text>
<polygon fill="none" stroke="black" points="43.2,-1833.6 43.2,-1864.4 374.7,-1864.4 374.7,-1833.6 43.2,-1833.6"/>
<text text-anchor="start" x="50.2" y="-1845.8" font-family="Arial" font-size="14.00">sub_image1 </text>
<text text-anchor="start" x="130.37" y="-1845.8" font-family="Arial" font-size="14.00" fill="#666666">[text]</text>
<text text-anchor="start" x="160.71" y="-1845.8" font-family="Arial" font-size="14.00"> サブ画像1</text>
<polygon fill="none" stroke="black" points="43.2,-1802.8 43.2,-1833.6 374.7,-1833.6 374.7,-1802.8 43.2,-1802.8"/>
<text text-anchor="start" x="50.2" y="-1815" font-family="Arial" font-size="14.00">sub_large_image1 </text>
<text text-anchor="start" x="169.28" y="-1815" font-family="Arial" font-size="14.00" fill="#666666">[text]</text>
<text text-anchor="start" x="199.63" y="-1815" font-family="Arial" font-size="14.00"> サブ拡大画像1</text>
<polygon fill="none" stroke="black" points="43.2,-1772 43.2,-1802.8 374.7,-1802.8 374.7,-1772 43.2,-1772"/>
<text text-anchor="start" x="50.2" y="-1784.2" font-family="Arial" font-size="14.00">sub_title2 </text>
<text text-anchor="start" x="114.02" y="-1784.2" font-family="Arial" font-size="14.00" fill="#666666">[text]</text>
<text text-anchor="start" x="144.37" y="-1784.2" font-family="Arial" font-size="14.00"> サブタイトル2</text>
<polygon fill="none" stroke="black" points="43.2,-1741.2 43.2,-1772 374.7,-1772 374.7,-1741.2 43.2,-1741.2"/>
<text text-anchor="start" x="50.2" y="-1753.4" font-family="Arial" font-size="14.00">sub_comment2 </text>
<text text-anchor="start" x="149.81" y="-1753.4" font-family="Arial" font-size="14.00" fill="#666666">[text]</text>
<text text-anchor="start" x="180.15" y="-1753.4" font-family="Arial" font-size="14.00"> サブコメント2</text>
<polygon fill="none" stroke="black" points="43.2,-1710.4 43.2,-1741.2 374.7,-1741.2 374.7,-1710.4 43.2,-1710.4"/>
<text text-anchor="start" x="50.2" y="-1722.6" font-family="Arial" font-size="14.00">sub_image2 </text>
<text text-anchor="start" x="130.37" y="-1722.6" font-family="Arial" font-size="14.00" fill="#666666">[text]</text>
<text text-anchor="start" x="160.71" y="-1722.6" font-family="Arial" font-size="14.00"> サブ画像2</text>
<polygon fill="none" stroke="black" points="43.2,-1679.6 43.2,-1710.4 374.7,-1710.4 374.7,-1679.6 43.2,-1679.6"/>
<text text-anchor="start" x="50.2" y="-1691.8" font-family="Arial" font-size="14.00">sub_large_image2 </text>
<text text-anchor="start" x="169.28" y="-1691.8" font-family="Arial" font-size="14.00" fill="#666666">[text]</text>
<text text-anchor="start" x="199.63" y="-1691.8" font-family="Arial" font-size="14.00"> サブ拡大画像2</text>
<polygon fill="none" stroke="black" points="43.2,-1648.8 43.2,-1679.6 374.7,-1679.6 374.7,-1648.8 43.2,-1648.8"/>
<text text-anchor="start" x="50.2" y="-1661" font-family="Arial" font-size="14.00">sub_title3 </text>
<text text-anchor="start" x="114.02" y="-1661" font-family="Arial" font-size="14.00" fill="#666666">[text]</text>
<text text-anchor="start" x="144.37" y="-1661" font-family="Arial" font-size="14.00"> サブタイトル3</text>
<polygon fill="none" stroke="black" points="43.2,-1618 43.2,-1648.8 374.7,-1648.8 374.7,-1618 43.2,-1618"/>
<text text-anchor="start" x="50.2" y="-1630.2" font-family="Arial" font-size="14.00">sub_comment3 </text>
<text text-anchor="start" x="149.81" y="-1630.2" font-family="Arial" font-size="14.00" fill="#666666">[text]</text>
<text text-anchor="start" x="180.15" y="-1630.2" font-family="Arial" font-size="14.00"> サブコメント3</text>
<polygon fill="none" stroke="black" points="43.2,-1587.2 43.2,-1618 374.7,-1618 374.7,-1587.2 43.2,-1587.2"/>
<text text-anchor="start" x="50.2" y="-1599.4" font-family="Arial" font-size="14.00">sub_image3 </text>
<text text-anchor="start" x="130.37" y="-1599.4" font-family="Arial" font-size="14.00" fill="#666666">[text]</text>
<text text-anchor="start" x="160.71" y="-1599.4" font-family="Arial" font-size="14.00"> サブ画像3</text>
<polygon fill="none" stroke="black" points="43.2,-1556.4 43.2,-1587.2 374.7,-1587.2 374.7,-1556.4 43.2,-1556.4"/>
<text text-anchor="start" x="50.2" y="-1568.6" font-family="Arial" font-size="14.00">sub_large_image3 </text>
<text text-anchor="start" x="169.28" y="-1568.6" font-family="Arial" font-size="14.00" fill="#666666">[text]</text>
<text text-anchor="start" x="199.63" y="-1568.6" font-family="Arial" font-size="14.00"> サブ拡大画像3</text>
<polygon fill="none" stroke="black" points="43.2,-1525.6 43.2,-1556.4 374.7,-1556.4 374.7,-1525.6 43.2,-1525.6"/>
<text text-anchor="start" x="50.2" y="-1537.8" font-family="Arial" font-size="14.00">sub_title4 </text>
<text text-anchor="start" x="114.02" y="-1537.8" font-family="Arial" font-size="14.00" fill="#666666">[text]</text>
<text text-anchor="start" x="144.37" y="-1537.8" font-family="Arial" font-size="14.00"> サブタイトル4</text>
<polygon fill="none" stroke="black" points="43.2,-1494.8 43.2,-1525.6 374.7,-1525.6 374.7,-1494.8 43.2,-1494.8"/>
<text text-anchor="start" x="50.2" y="-1507" font-family="Arial" font-size="14.00">sub_comment4 </text>
<text text-anchor="start" x="149.81" y="-1507" font-family="Arial" font-size="14.00" fill="#666666">[text]</text>
<text text-anchor="start" x="180.15" y="-1507" font-family="Arial" font-size="14.00"> サブコメント4</text>
<polygon fill="none" stroke="black" points="43.2,-1464 43.2,-1494.8 374.7,-1494.8 374.7,-1464 43.2,-1464"/>
<text text-anchor="start" x="50.2" y="-1476.2" font-family="Arial" font-size="14.00">sub_image4 </text>
<text text-anchor="start" x="130.37" y="-1476.2" font-family="Arial" font-size="14.00" fill="#666666">[text]</text>
<text text-anchor="start" x="160.71" y="-1476.2" font-family="Arial" font-size="14.00"> サブ画像4</text>
<polygon fill="none" stroke="black" points="43.2,-1433.2 43.2,-1464 374.7,-1464 374.7,-1433.2 43.2,-1433.2"/>
<text text-anchor="start" x="50.2" y="-1445.4" font-family="Arial" font-size="14.00">sub_large_image4 </text>
<text text-anchor="start" x="169.28" y="-1445.4" font-family="Arial" font-size="14.00" fill="#666666">[text]</text>
<text text-anchor="start" x="199.63" y="-1445.4" font-family="Arial" font-size="14.00"> サブ拡大画像4</text>
<polygon fill="none" stroke="black" points="43.2,-1402.4 43.2,-1433.2 374.7,-1433.2 374.7,-1402.4 43.2,-1402.4"/>
<text text-anchor="start" x="50.2" y="-1414.6" font-family="Arial" font-size="14.00">sub_title5 </text>
<text text-anchor="start" x="114.02" y="-1414.6" font-family="Arial" font-size="14.00" fill="#666666">[text]</text>
<text text-anchor="start" x="144.37" y="-1414.6" font-family="Arial" font-size="14.00"> サブタイトル5</text>
<polygon fill="none" stroke="black" points="43.2,-1371.6 43.2,-1402.4 374.7,-1402.4 374.7,-1371.6 43.2,-1371.6"/>
<text text-anchor="start" x="50.2" y="-1383.8" font-family="Arial" font-size="14.00">sub_comment5 </text>
<text text-anchor="start" x="149.81" y="-1383.8" font-family="Arial" font-size="14.00" fill="#666666">[text]</text>
<text text-anchor="start" x="180.15" y="-1383.8" font-family="Arial" font-size="14.00"> サブコメント5</text>
<polygon fill="none" stroke="black" points="43.2,-1340.8 43.2,-1371.6 374.7,-1371.6 374.7,-1340.8 43.2,-1340.8"/>
<text text-anchor="start" x="50.2" y="-1353" font-family="Arial" font-size="14.00">sub_image5 </text>
<text text-anchor="start" x="130.37" y="-1353" font-family="Arial" font-size="14.00" fill="#666666">[text]</text>
<text text-anchor="start" x="160.71" y="-1353" font-family="Arial" font-size="14.00"> サブ画像5</text>
<polygon fill="none" stroke="black" points="43.2,-1310 43.2,-1340.8 374.7,-1340.8 374.7,-1310 43.2,-1310"/>
<text text-anchor="start" x="50.2" y="-1322.2" font-family="Arial" font-size="14.00">sub_large_image5 </text>
<text text-anchor="start" x="169.28" y="-1322.2" font-family="Arial" font-size="14.00" fill="#666666">[text]</text>
<text text-anchor="start" x="199.63" y="-1322.2" font-family="Arial" font-size="14.00"> サブ拡大画像5</text>
<polygon fill="none" stroke="black" points="43.2,-1279.2 43.2,-1310 374.7,-1310 374.7,-1279.2 43.2,-1279.2"/>
<text text-anchor="start" x="50.2" y="-1291.4" font-family="Arial" font-size="14.00">sub_title6 </text>
<text text-anchor="start" x="114.02" y="-1291.4" font-family="Arial" font-size="14.00" fill="#666666">[text]</text>
<text text-anchor="start" x="144.37" y="-1291.4" font-family="Arial" font-size="14.00"> サブタイトル6</text>
<polygon fill="none" stroke="black" points="43.2,-1248.4 43.2,-1279.2 374.7,-1279.2 374.7,-1248.4 43.2,-1248.4"/>
<text text-anchor="start" x="50.2" y="-1260.6" font-family="Arial" font-size="14.00">sub_comment6 </text>
<text text-anchor="start" x="149.81" y="-1260.6" font-family="Arial" font-size="14.00" fill="#666666">[text]</text>
<text text-anchor="start" x="180.15" y="-1260.6" font-family="Arial" font-size="14.00"> サブコメント6</text>
<polygon fill="none" stroke="black" points="43.2,-1217.6 43.2,-1248.4 374.7,-1248.4 374.7,-1217.6 43.2,-1217.6"/>
<text text-anchor="start" x="50.2" y="-1229.8" font-family="Arial" font-size="14.00">sub_image6 </text>
<text text-anchor="start" x="130.37" y="-1229.8" font-family="Arial" font-size="14.00" fill="#666666">[text]</text>
<text text-anchor="start" x="160.71" y="-1229.8" font-family="Arial" font-size="14.00"> サブ画像6</text>
<polygon fill="none" stroke="black" points="43.2,-1186.8 43.2,-1217.6 374.7,-1217.6 374.7,-1186.8 43.2,-1186.8"/>
<text text-anchor="start" x="50.2" y="-1199" font-family="Arial" font-size="14.00">sub_large_image6 </text>
<text text-anchor="start" x="169.28" y="-1199" font-family="Arial" font-size="14.00" fill="#666666">[text]</text>
<text text-anchor="start" x="199.63" y="-1199" font-family="Arial" font-size="14.00"> サブ拡大画像6</text>
<polygon fill="none" stroke="black" points="43.2,-1156 43.2,-1186.8 374.7,-1186.8 374.7,-1156 43.2,-1156"/>
<text text-anchor="start" x="50.2" y="-1168.2" font-family="Arial" font-size="14.00">del_flg </text>
<text text-anchor="start" x="95.34" y="-1168.2" font-family="Arial" font-size="14.00" fill="#666666">[smallint]</text>
<text text-anchor="start" x="150.58" y="-1168.2" font-family="Arial" font-size="14.00"> 削除フラグ</text>
<polygon fill="none" stroke="black" points="43.2,-1125.2 43.2,-1156 374.7,-1156 374.7,-1125.2 43.2,-1125.2"/>
<text text-anchor="start" x="50.2" y="-1137.4" font-family="Arial" font-size="14.00">creator_id </text>
<text text-anchor="start" x="116.34" y="-1137.4" font-family="Arial" font-size="14.00" fill="#666666">[integer]</text>
<text text-anchor="start" x="166.93" y="-1137.4" font-family="Arial" font-size="14.00"> 作成者ID</text>
<polygon fill="none" stroke="black" points="43.2,-1094.4 43.2,-1125.2 374.7,-1125.2 374.7,-1094.4 43.2,-1094.4"/>
<text text-anchor="start" x="50.2" y="-1106.6" font-family="Arial" font-size="14.00">create_date </text>
<text text-anchor="start" x="128.03" y="-1106.6" font-family="Arial" font-size="14.00" fill="#666666">[timestamp without time zone]</text>
<text text-anchor="start" x="313.22" y="-1106.6" font-family="Arial" font-size="14.00"> 作成日時</text>
<polygon fill="none" stroke="black" points="43.2,-1063.6 43.2,-1094.4 374.7,-1094.4 374.7,-1063.6 43.2,-1063.6"/>
<text text-anchor="start" x="50.2" y="-1075.8" font-family="Arial" font-size="14.00">update_date </text>
<text text-anchor="start" x="131.94" y="-1075.8" font-family="Arial" font-size="14.00" fill="#666666">[timestamp without time zone]</text>
<text text-anchor="start" x="317.13" y="-1075.8" font-family="Arial" font-size="14.00"> 更新日時</text>
<polygon fill="none" stroke="black" points="43.2,-1032.8 43.2,-1063.6 374.7,-1063.6 374.7,-1032.8 43.2,-1032.8"/>
<text text-anchor="start" x="50.2" y="-1045" font-family="Arial" font-size="14.00">deliv_date_id </text>
<text text-anchor="start" x="136.6" y="-1045" font-family="Arial" font-size="14.00" fill="#666666">[integer]</text>
<text text-anchor="start" x="187.19" y="-1045" font-family="Arial" font-size="14.00"> 発送日目安</text>
</g>
<!-- public.dtb_products&#45;&gt;public.dtb_maker -->
<g id="edge1" class="edge">
<title>public.dtb_products:maker_id&#45;&gt;public.dtb_maker:maker_id</title>
<path fill="none" stroke="black" stroke-dasharray="5,2" d="M384.02,-2336.04C448.32,-2242.77 417.43,-1047.78 374.7,-989.6 343.12,-946.61 291.96,-996.46 260.2,-953.6 231.73,-915.18 211.38,-846 259.2,-846"/>
<polygon fill="black" stroke="black" points="384.19,-2335.92 373.41,-2337.91 379.81,-2338.95 376.25,-2341.42 376.25,-2341.42 376.25,-2341.42 379.81,-2338.95 378.53,-2345.31 384.19,-2335.92"/>
<text text-anchor="start" x="382.7" y="-2351.8" font-family="Arial" font-size="10.00">Additional Relation</text>
</g>
<!-- public.dtb_maker_count -->
<g id="node3" class="node">
<title>public.dtb_maker_count</title>
<polygon fill="#efefef" stroke="none" points="479.16,-1772 479.16,-1818 806.74,-1818 806.74,-1772 479.16,-1772"/>
<polygon fill="none" stroke="black" points="479.16,-1772 479.16,-1818 806.74,-1818 806.74,-1772 479.16,-1772"/>
<text text-anchor="start" x="492.97" y="-1795.8" font-family="Arial Bold" font-size="18.00">public.dtb_maker_count</text>
<text text-anchor="start" x="668.43" y="-1795.8" font-family="Arial" font-size="14.00">    </text>
<text text-anchor="start" x="699.55" y="-1795.8" font-family="Arial" font-size="14.00" fill="#666666">[BASE TABLE]</text>
<text text-anchor="start" x="596.27" y="-1781.4" font-family="Arial" font-size="14.00" fill="#333333">メーカーカウント</text>
<polygon fill="none" stroke="black" points="479.16,-1741.2 479.16,-1772 806.74,-1772 806.74,-1741.2 479.16,-1741.2"/>
<text text-anchor="start" x="486.16" y="-1753.4" font-family="Arial" font-size="14.00">maker_id </text>
<text text-anchor="start" x="547.62" y="-1753.4" font-family="Arial" font-size="14.00" fill="#666666">[integer]</text>
<text text-anchor="start" x="598.21" y="-1753.4" font-family="Arial" font-size="14.00"> メーカーID</text>
<polygon fill="none" stroke="black" points="479.16,-1710.4 479.16,-1741.2 806.74,-1741.2 806.74,-1710.4 479.16,-1710.4"/>
<text text-anchor="start" x="486.16" y="-1722.6" font-family="Arial" font-size="14.00">product_count </text>
<text text-anchor="start" x="578.78" y="-1722.6" font-family="Arial" font-size="14.00" fill="#666666">[integer]</text>
<text text-anchor="start" x="629.36" y="-1722.6" font-family="Arial" font-size="14.00"> 登録商品数</text>
<polygon fill="none" stroke="black" points="479.16,-1679.6 479.16,-1710.4 806.74,-1710.4 806.74,-1679.6 479.16,-1679.6"/>
<text text-anchor="start" x="486.16" y="-1691.8" font-family="Arial" font-size="14.00">create_date </text>
<text text-anchor="start" x="563.99" y="-1691.8" font-family="Arial" font-size="14.00" fill="#666666">[timestamp without time zone]</text>
<text text-anchor="start" x="749.17" y="-1691.8" font-family="Arial" font-size="14.00"> 作成日時</text>
</g>
<!-- public.dtb_maker_count&#45;&gt;public.dtb_maker -->
<g id="edge2" class="edge">
<title>public.dtb_maker_count:maker_id&#45;&gt;public.dtb_maker:maker_id</title>
<path fill="none" stroke="black" stroke-dasharray="5,2" d="M467.8,-1755.72C292.85,-1723.99 792.96,-846 592.7,-846"/>
<polygon fill="black" stroke="black" points="467.86,-1755.72 477.44,-1761.06 473.17,-1756.18 477.49,-1756.54 477.49,-1756.54 477.49,-1756.54 473.17,-1756.18 478.2,-1752.09 467.86,-1755.72"/>
<text text-anchor="start" x="387.77" y="-1766.6" font-family="Arial" font-size="10.00">Additional Relation</text>
</g>
</g>
</svg>
