<?xml version="1.0" encoding="UTF-8" standalone="no"?>
<!DOCTYPE svg PUBLIC "-//W3C//DTD SVG 1.1//EN"
 "http://www.w3.org/Graphics/SVG/1.1/DTD/svg11.dtd">
<!-- Generated by graphviz version 12.1.2 (20240928.0832)
 -->
<!-- Title: public.dtb_ownersstore_settings Pages: 1 -->
<svg width="471pt" height="177pt"
 viewBox="0.00 0.00 471.36 177.20" xmlns="http://www.w3.org/2000/svg" xmlns:xlink="http://www.w3.org/1999/xlink">
<g id="graph0" class="graph" transform="scale(1 1) rotate(0) translate(4 173.2)">
<title>public.dtb_ownersstore_settings</title>
<polygon fill="white" stroke="none" points="-4,4 -4,-173.2 467.36,-173.2 467.36,4 -4,4"/>
<!-- public.dtb_ownersstore_settings -->
<g id="node1" class="node">
<title>public.dtb_ownersstore_settings</title>
<polygon fill="#efefef" stroke="none" points="46.2,-77 46.2,-123 417.16,-123 417.16,-77 46.2,-77"/>
<polygon fill="none" stroke="black" points="46.2,-77 46.2,-123 417.16,-123 417.16,-77 46.2,-77"/>
<text text-anchor="start" x="53.2" y="-100.8" font-family="Arial Bold" font-size="18.00">public.dtb_ownersstore_settings</text>
<text text-anchor="start" x="285.67" y="-100.8" font-family="Arial" font-size="14.00">    </text>
<text text-anchor="start" x="316.79" y="-100.8" font-family="Arial" font-size="14.00" fill="#666666">[BASE TABLE]</text>
<text text-anchor="start" x="173.34" y="-86.4" font-family="Arial" font-size="14.00" fill="#333333">オーナーズストア設定</text>
<polygon fill="none" stroke="black" points="46.2,-46.2 46.2,-77 417.16,-77 417.16,-46.2 46.2,-46.2"/>
<text text-anchor="start" x="53.2" y="-58.4" font-family="Arial" font-size="14.00">public_key </text>
<text text-anchor="start" x="123.24" y="-58.4" font-family="Arial" font-size="14.00" fill="#666666">[text]</text>
<text text-anchor="start" x="153.59" y="-58.4" font-family="Arial" font-size="14.00"> 認証キー</text>
<polygon fill="none" stroke="black" stroke-width="3" points="44.7,-44.7 44.7,-124.5 418.66,-124.5 418.66,-44.7 44.7,-44.7"/>
</g>
</g>
</svg>
