<?xml version="1.0" encoding="UTF-8" standalone="no"?>
<!DOCTYPE svg PUBLIC "-//W3C//DTD SVG 1.1//EN"
 "http://www.w3.org/Graphics/SVG/1.1/DTD/svg11.dtd">
<!-- Generated by graphviz version 12.1.2 (20240928.0832)
 -->
<!-- Title: public.mtb_product_list_max Pages: 1 -->
<svg width="451pt" height="239pt"
 viewBox="0.00 0.00 451.36 238.80" xmlns="http://www.w3.org/2000/svg" xmlns:xlink="http://www.w3.org/1999/xlink">
<g id="graph0" class="graph" transform="scale(1 1) rotate(0) translate(4 234.8)">
<title>public.mtb_product_list_max</title>
<polygon fill="white" stroke="none" points="-4,4 -4,-234.8 447.36,-234.8 447.36,4 -4,4"/>
<!-- public.mtb_product_list_max -->
<g id="node1" class="node">
<title>public.mtb_product_list_max</title>
<polygon fill="#efefef" stroke="none" points="46.2,-138.6 46.2,-184.6 397.16,-184.6 397.16,-138.6 46.2,-138.6"/>
<polygon fill="none" stroke="black" points="46.2,-138.6 46.2,-184.6 397.16,-184.6 397.16,-138.6 46.2,-138.6"/>
<text text-anchor="start" x="53.2" y="-162.4" font-family="Arial Bold" font-size="18.00">public.mtb_product_list_max</text>
<text text-anchor="start" x="265.68" y="-162.4" font-family="Arial" font-size="14.00">    </text>
<text text-anchor="start" x="296.79" y="-162.4" font-family="Arial" font-size="14.00" fill="#666666">[BASE TABLE]</text>
<text text-anchor="start" x="169.17" y="-148" font-family="Arial" font-size="14.00" fill="#333333">商品一覧最大表示数</text>
<polygon fill="none" stroke="black" points="46.2,-107.8 46.2,-138.6 397.16,-138.6 397.16,-107.8 46.2,-107.8"/>
<text text-anchor="start" x="53.2" y="-120" font-family="Arial" font-size="14.00">id </text>
<text text-anchor="start" x="67.99" y="-120" font-family="Arial" font-size="14.00" fill="#666666">[smallint]</text>
<text text-anchor="start" x="123.22" y="-120" font-family="Arial" font-size="14.00"> ID</text>
<polygon fill="none" stroke="black" points="46.2,-77 46.2,-107.8 397.16,-107.8 397.16,-77 46.2,-77"/>
<text text-anchor="start" x="53.2" y="-89.2" font-family="Arial" font-size="14.00">name </text>
<text text-anchor="start" x="92.11" y="-89.2" font-family="Arial" font-size="14.00" fill="#666666">[text]</text>
<text text-anchor="start" x="122.45" y="-89.2" font-family="Arial" font-size="14.00"> 名称</text>
<polygon fill="none" stroke="black" points="46.2,-46.2 46.2,-77 397.16,-77 397.16,-46.2 46.2,-46.2"/>
<text text-anchor="start" x="53.2" y="-58.4" font-family="Arial" font-size="14.00">rank </text>
<text text-anchor="start" x="84.32" y="-58.4" font-family="Arial" font-size="14.00" fill="#666666">[smallint]</text>
<text text-anchor="start" x="139.56" y="-58.4" font-family="Arial" font-size="14.00"> 表示順</text>
<polygon fill="none" stroke="black" stroke-width="3" points="44.7,-44.7 44.7,-186.1 398.66,-186.1 398.66,-44.7 44.7,-44.7"/>
</g>
</g>
</svg>
