<?xml version="1.0" encoding="UTF-8" standalone="no"?>
<!DOCTYPE svg PUBLIC "-//W3C//DTD SVG 1.1//EN"
 "http://www.w3.org/Graphics/SVG/1.1/DTD/svg11.dtd">
<!-- Generated by graphviz version 12.1.2 (20240928.0832)
 -->
<!-- Title: public.dtb_templates Pages: 1 -->
<svg width="484pt" height="561pt"
 viewBox="0.00 0.00 484.08 561.20" xmlns="http://www.w3.org/2000/svg" xmlns:xlink="http://www.w3.org/1999/xlink">
<g id="graph0" class="graph" transform="scale(1 1) rotate(0) translate(4 557.2)">
<title>public.dtb_templates</title>
<polygon fill="white" stroke="none" points="-4,4 -4,-557.2 480.08,-557.2 480.08,4 -4,4"/>
<!-- public.dtb_templates -->
<g id="node1" class="node">
<title>public.dtb_templates</title>
<polygon fill="#efefef" stroke="none" points="46.2,-461 46.2,-507 377.7,-507 377.7,-461 46.2,-461"/>
<polygon fill="none" stroke="black" points="46.2,-461 46.2,-507 377.7,-507 377.7,-461 46.2,-461"/>
<text text-anchor="start" x="74.47" y="-484.8" font-family="Arial Bold" font-size="18.00">public.dtb_templates</text>
<text text-anchor="start" x="224.94" y="-484.8" font-family="Arial" font-size="14.00">    </text>
<text text-anchor="start" x="256.05" y="-484.8" font-family="Arial" font-size="14.00" fill="#666666">[BASE TABLE]</text>
<text text-anchor="start" x="165.27" y="-470.4" font-family="Arial" font-size="14.00" fill="#333333">テンプレート情報</text>
<polygon fill="none" stroke="black" points="46.2,-430.2 46.2,-461 377.7,-461 377.7,-430.2 46.2,-430.2"/>
<text text-anchor="start" x="53.2" y="-442.4" font-family="Arial" font-size="14.00">template_code </text>
<text text-anchor="start" x="148.93" y="-442.4" font-family="Arial" font-size="14.00" fill="#666666">[text]</text>
<text text-anchor="start" x="179.28" y="-442.4" font-family="Arial" font-size="14.00"> テンプレートコード</text>
<polygon fill="none" stroke="black" points="46.2,-399.4 46.2,-430.2 377.7,-430.2 377.7,-399.4 46.2,-399.4"/>
<text text-anchor="start" x="53.2" y="-411.6" font-family="Arial" font-size="14.00">device_type_id </text>
<text text-anchor="start" x="150.49" y="-411.6" font-family="Arial" font-size="14.00" fill="#666666">[integer]</text>
<text text-anchor="start" x="201.07" y="-411.6" font-family="Arial" font-size="14.00"> 端末種別ID</text>
<polygon fill="none" stroke="black" points="46.2,-368.6 46.2,-399.4 377.7,-399.4 377.7,-368.6 46.2,-368.6"/>
<text text-anchor="start" x="53.2" y="-380.8" font-family="Arial" font-size="14.00">template_name </text>
<text text-anchor="start" x="153.59" y="-380.8" font-family="Arial" font-size="14.00" fill="#666666">[text]</text>
<text text-anchor="start" x="183.94" y="-380.8" font-family="Arial" font-size="14.00"> テンプレート名</text>
<polygon fill="none" stroke="black" points="46.2,-337.8 46.2,-368.6 377.7,-368.6 377.7,-337.8 46.2,-337.8"/>
<text text-anchor="start" x="53.2" y="-350" font-family="Arial" font-size="14.00">create_date </text>
<text text-anchor="start" x="131.03" y="-350" font-family="Arial" font-size="14.00" fill="#666666">[timestamp without time zone]</text>
<text text-anchor="start" x="316.22" y="-350" font-family="Arial" font-size="14.00"> 作成日時</text>
<polygon fill="none" stroke="black" points="46.2,-307 46.2,-337.8 377.7,-337.8 377.7,-307 46.2,-307"/>
<text text-anchor="start" x="53.2" y="-319.2" font-family="Arial" font-size="14.00">update_date </text>
<text text-anchor="start" x="134.94" y="-319.2" font-family="Arial" font-size="14.00" fill="#666666">[timestamp without time zone]</text>
<text text-anchor="start" x="320.13" y="-319.2" font-family="Arial" font-size="14.00"> 更新日時</text>
<polygon fill="none" stroke="black" stroke-width="3" points="44.7,-305.5 44.7,-508.5 379.2,-508.5 379.2,-305.5 44.7,-305.5"/>
</g>
<!-- public.mtb_device_type -->
<g id="node2" class="node">
<title>public.mtb_device_type</title>
<polygon fill="#efefef" stroke="none" points="55.98,-135.6 55.98,-181.6 367.92,-181.6 367.92,-135.6 55.98,-135.6"/>
<polygon fill="none" stroke="black" points="55.98,-135.6 55.98,-181.6 367.92,-181.6 367.92,-135.6 55.98,-135.6"/>
<text text-anchor="start" x="62.98" y="-159.4" font-family="Arial Bold" font-size="18.00">public.mtb_device_type</text>
<text text-anchor="start" x="236.43" y="-159.4" font-family="Arial" font-size="14.00">    </text>
<text text-anchor="start" x="267.55" y="-159.4" font-family="Arial" font-size="14.00" fill="#666666">[BASE TABLE]</text>
<text text-anchor="start" x="188.61" y="-145" font-family="Arial" font-size="14.00" fill="#333333">端末種別</text>
<polygon fill="none" stroke="black" points="55.98,-104.8 55.98,-135.6 367.92,-135.6 367.92,-104.8 55.98,-104.8"/>
<text text-anchor="start" x="62.98" y="-117" font-family="Arial" font-size="14.00">id </text>
<text text-anchor="start" x="77.76" y="-117" font-family="Arial" font-size="14.00" fill="#666666">[smallint]</text>
<text text-anchor="start" x="133" y="-117" font-family="Arial" font-size="14.00"> ID</text>
<polygon fill="none" stroke="black" points="55.98,-74 55.98,-104.8 367.92,-104.8 367.92,-74 55.98,-74"/>
<text text-anchor="start" x="62.98" y="-86.2" font-family="Arial" font-size="14.00">name </text>
<text text-anchor="start" x="101.89" y="-86.2" font-family="Arial" font-size="14.00" fill="#666666">[text]</text>
<text text-anchor="start" x="132.23" y="-86.2" font-family="Arial" font-size="14.00"> 名称</text>
<polygon fill="none" stroke="black" points="55.98,-43.2 55.98,-74 367.92,-74 367.92,-43.2 55.98,-43.2"/>
<text text-anchor="start" x="62.98" y="-55.4" font-family="Arial" font-size="14.00">rank </text>
<text text-anchor="start" x="94.1" y="-55.4" font-family="Arial" font-size="14.00" fill="#666666">[smallint]</text>
<text text-anchor="start" x="149.34" y="-55.4" font-family="Arial" font-size="14.00"> 表示順</text>
</g>
<!-- public.dtb_templates&#45;&gt;public.mtb_device_type -->
<g id="edge1" class="edge">
<title>public.dtb_templates:device_type_id&#45;&gt;public.mtb_device_type:id</title>
<path fill="none" stroke="black" stroke-dasharray="5,2" d="M388.77,-412.25C442.96,-383.46 430.84,-120.2 368.92,-120.2"/>
<polygon fill="black" stroke="black" points="388.71,-412.27 377.92,-410.36 383.54,-413.57 379.34,-414.64 379.34,-414.64 379.34,-414.64 383.54,-413.57 380.12,-419.08 388.71,-412.27"/>
<text text-anchor="start" x="385.7" y="-424.8" font-family="Arial" font-size="10.00">Additional Relation</text>
</g>
</g>
</svg>
