<?xml version="1.0" encoding="UTF-8" standalone="no"?>
<!DOCTYPE svg PUBLIC "-//W3C//DTD SVG 1.1//EN"
 "http://www.w3.org/Graphics/SVG/1.1/DTD/svg11.dtd">
<!-- Generated by graphviz version 12.1.2 (20240928.0832)
 -->
<!-- Title: public.dtb_category Pages: 1 -->
<svg width="1799pt" height="1500pt"
 viewBox="0.00 0.00 1798.61 1499.60" xmlns="http://www.w3.org/2000/svg" xmlns:xlink="http://www.w3.org/1999/xlink">
<g id="graph0" class="graph" transform="scale(1 1) rotate(0) translate(4 1495.6)">
<title>public.dtb_category</title>
<polygon fill="white" stroke="none" points="-4,4 -4,-1495.6 1794.61,-1495.6 1794.61,4 -4,4"/>
<!-- public.dtb_category -->
<g id="node1" class="node">
<title>public.dtb_category</title>
<polygon fill="#efefef" stroke="none" points="731.91,-923 731.91,-969 1063.41,-969 1063.41,-923 731.91,-923"/>
<polygon fill="none" stroke="black" points="731.91,-923 731.91,-969 1063.41,-969 1063.41,-923 731.91,-923"/>
<text text-anchor="start" x="763.69" y="-946.8" font-family="Arial Bold" font-size="18.00">public.dtb_category</text>
<text text-anchor="start" x="907.14" y="-946.8" font-family="Arial" font-size="14.00">    </text>
<text text-anchor="start" x="938.26" y="-946.8" font-family="Arial" font-size="14.00" fill="#666666">[BASE TABLE]</text>
<text text-anchor="start" x="862.66" y="-932.4" font-family="Arial" font-size="14.00" fill="#333333">カテゴリ情報</text>
<polygon fill="none" stroke="black" points="731.91,-892.2 731.91,-923 1063.41,-923 1063.41,-892.2 731.91,-892.2"/>
<text text-anchor="start" x="738.91" y="-904.4" font-family="Arial" font-size="14.00">category_id </text>
<text text-anchor="start" x="815.18" y="-904.4" font-family="Arial" font-size="14.00" fill="#666666">[integer]</text>
<text text-anchor="start" x="865.77" y="-904.4" font-family="Arial" font-size="14.00"> カテゴリID</text>
<polygon fill="none" stroke="black" points="731.91,-861.4 731.91,-892.2 1063.41,-892.2 1063.41,-861.4 731.91,-861.4"/>
<text text-anchor="start" x="738.91" y="-873.6" font-family="Arial" font-size="14.00">category_name </text>
<text text-anchor="start" x="839.31" y="-873.6" font-family="Arial" font-size="14.00" fill="#666666">[text]</text>
<text text-anchor="start" x="869.65" y="-873.6" font-family="Arial" font-size="14.00"> カテゴリ名</text>
<polygon fill="none" stroke="black" points="731.91,-830.6 731.91,-861.4 1063.41,-861.4 1063.41,-830.6 731.91,-830.6"/>
<text text-anchor="start" x="738.91" y="-842.8" font-family="Arial" font-size="14.00">parent_category_id </text>
<text text-anchor="start" x="862.67" y="-842.8" font-family="Arial" font-size="14.00" fill="#666666">[integer]</text>
<text text-anchor="start" x="913.25" y="-842.8" font-family="Arial" font-size="14.00"> 親カテゴリID</text>
<polygon fill="none" stroke="black" points="731.91,-799.8 731.91,-830.6 1063.41,-830.6 1063.41,-799.8 731.91,-799.8"/>
<text text-anchor="start" x="738.91" y="-812" font-family="Arial" font-size="14.00">level </text>
<text text-anchor="start" x="771.6" y="-812" font-family="Arial" font-size="14.00" fill="#666666">[integer]</text>
<text text-anchor="start" x="822.18" y="-812" font-family="Arial" font-size="14.00"> 階層</text>
<polygon fill="none" stroke="black" points="731.91,-769 731.91,-799.8 1063.41,-799.8 1063.41,-769 731.91,-769"/>
<text text-anchor="start" x="738.91" y="-781.2" font-family="Arial" font-size="14.00">rank </text>
<text text-anchor="start" x="770.04" y="-781.2" font-family="Arial" font-size="14.00" fill="#666666">[integer]</text>
<text text-anchor="start" x="820.62" y="-781.2" font-family="Arial" font-size="14.00"> 表示順</text>
<polygon fill="none" stroke="black" points="731.91,-738.2 731.91,-769 1063.41,-769 1063.41,-738.2 731.91,-738.2"/>
<text text-anchor="start" x="738.91" y="-750.4" font-family="Arial" font-size="14.00">creator_id </text>
<text text-anchor="start" x="805.06" y="-750.4" font-family="Arial" font-size="14.00" fill="#666666">[integer]</text>
<text text-anchor="start" x="855.64" y="-750.4" font-family="Arial" font-size="14.00"> 作成者ID</text>
<polygon fill="none" stroke="black" points="731.91,-707.4 731.91,-738.2 1063.41,-738.2 1063.41,-707.4 731.91,-707.4"/>
<text text-anchor="start" x="738.91" y="-719.6" font-family="Arial" font-size="14.00">create_date </text>
<text text-anchor="start" x="816.75" y="-719.6" font-family="Arial" font-size="14.00" fill="#666666">[timestamp without time zone]</text>
<text text-anchor="start" x="1001.93" y="-719.6" font-family="Arial" font-size="14.00"> 作成日時</text>
<polygon fill="none" stroke="black" points="731.91,-676.6 731.91,-707.4 1063.41,-707.4 1063.41,-676.6 731.91,-676.6"/>
<text text-anchor="start" x="738.91" y="-688.8" font-family="Arial" font-size="14.00">update_date </text>
<text text-anchor="start" x="820.66" y="-688.8" font-family="Arial" font-size="14.00" fill="#666666">[timestamp without time zone]</text>
<text text-anchor="start" x="1005.84" y="-688.8" font-family="Arial" font-size="14.00"> 更新日時</text>
<polygon fill="none" stroke="black" points="731.91,-645.8 731.91,-676.6 1063.41,-676.6 1063.41,-645.8 731.91,-645.8"/>
<text text-anchor="start" x="738.91" y="-658" font-family="Arial" font-size="14.00">del_flg </text>
<text text-anchor="start" x="784.06" y="-658" font-family="Arial" font-size="14.00" fill="#666666">[smallint]</text>
<text text-anchor="start" x="839.29" y="-658" font-family="Arial" font-size="14.00"> 削除フラグ</text>
<polygon fill="none" stroke="black" stroke-width="3" points="730.41,-644.3 730.41,-970.5 1064.91,-970.5 1064.91,-644.3 730.41,-644.3"/>
</g>
<!-- public.dtb_category&#45;&gt;public.dtb_category -->
<g id="edge2" class="edge">
<title>public.dtb_category:parent_category_id&#45;&gt;public.dtb_category:category_id</title>
<path fill="none" stroke="black" stroke-dasharray="5,2" d="M899.09,-871.52C906.63,-1020.26 906.16,-1247.2 897.66,-1247.2 888.97,-1247.2 888.67,-1067.17 896.77,-922.79"/>
<polygon fill="black" stroke="black" points="899.1,-871.72 903.06,-861.49 898.82,-866.39 898.59,-862.06 898.59,-862.06 898.59,-862.06 898.82,-866.39 894.08,-861.97 899.1,-871.72"/>
<text text-anchor="start" x="808.16" y="-871.4" font-family="Arial" font-size="10.00">Additional Relation</text>
</g>
<!-- public.dtb_member -->
<g id="node6" class="node">
<title>public.dtb_member</title>
<polygon fill="#efefef" stroke="none" points="715.2,-474.4 715.2,-520.4 1080.13,-520.4 1080.13,-474.4 715.2,-474.4"/>
<polygon fill="none" stroke="black" points="715.2,-474.4 715.2,-520.4 1080.13,-520.4 1080.13,-474.4 715.2,-474.4"/>
<text text-anchor="start" x="765.18" y="-498.2" font-family="Arial Bold" font-size="18.00">public.dtb_member</text>
<text text-anchor="start" x="905.65" y="-498.2" font-family="Arial" font-size="14.00">    </text>
<text text-anchor="start" x="936.77" y="-498.2" font-family="Arial" font-size="14.00" fill="#666666">[BASE TABLE]</text>
<text text-anchor="start" x="839.32" y="-483.8" font-family="Arial" font-size="14.00" fill="#333333">管理画面メンバー情報</text>
<polygon fill="none" stroke="black" points="715.2,-443.6 715.2,-474.4 1080.13,-474.4 1080.13,-443.6 715.2,-443.6"/>
<text text-anchor="start" x="722.2" y="-455.8" font-family="Arial" font-size="14.00">member_id </text>
<text text-anchor="start" x="796.11" y="-455.8" font-family="Arial" font-size="14.00" fill="#666666">[integer]</text>
<text text-anchor="start" x="846.7" y="-455.8" font-family="Arial" font-size="14.00"> メンバーID</text>
<polygon fill="none" stroke="black" points="715.2,-412.8 715.2,-443.6 1080.13,-443.6 1080.13,-412.8 715.2,-412.8"/>
<text text-anchor="start" x="722.2" y="-425" font-family="Arial" font-size="14.00">name </text>
<text text-anchor="start" x="761.11" y="-425" font-family="Arial" font-size="14.00" fill="#666666">[text]</text>
<text text-anchor="start" x="791.45" y="-425" font-family="Arial" font-size="14.00"> 名前</text>
<polygon fill="none" stroke="black" points="715.2,-382 715.2,-412.8 1080.13,-412.8 1080.13,-382 715.2,-382"/>
<text text-anchor="start" x="722.2" y="-394.2" font-family="Arial" font-size="14.00">department </text>
<text text-anchor="start" x="796.91" y="-394.2" font-family="Arial" font-size="14.00" fill="#666666">[text]</text>
<text text-anchor="start" x="827.25" y="-394.2" font-family="Arial" font-size="14.00"> 部門</text>
<polygon fill="none" stroke="black" points="715.2,-351.2 715.2,-382 1080.13,-382 1080.13,-351.2 715.2,-351.2"/>
<text text-anchor="start" x="722.2" y="-363.4" font-family="Arial" font-size="14.00">login_id </text>
<text text-anchor="start" x="774.35" y="-363.4" font-family="Arial" font-size="14.00" fill="#666666">[text]</text>
<text text-anchor="start" x="804.69" y="-363.4" font-family="Arial" font-size="14.00"> ログインID</text>
<polygon fill="none" stroke="black" points="715.2,-320.4 715.2,-351.2 1080.13,-351.2 1080.13,-320.4 715.2,-320.4"/>
<text text-anchor="start" x="722.2" y="-332.6" font-family="Arial" font-size="14.00">password </text>
<text text-anchor="start" x="786" y="-332.6" font-family="Arial" font-size="14.00" fill="#666666">[text]</text>
<text text-anchor="start" x="816.35" y="-332.6" font-family="Arial" font-size="14.00"> パスワード</text>
<polygon fill="none" stroke="black" points="715.2,-289.6 715.2,-320.4 1080.13,-320.4 1080.13,-289.6 715.2,-289.6"/>
<text text-anchor="start" x="722.2" y="-301.8" font-family="Arial" font-size="14.00">salt </text>
<text text-anchor="start" x="747.87" y="-301.8" font-family="Arial" font-size="14.00" fill="#666666">[text]</text>
<text text-anchor="start" x="778.22" y="-301.8" font-family="Arial" font-size="14.00"> 暗号化付与文字列</text>
<polygon fill="none" stroke="black" points="715.2,-258.8 715.2,-289.6 1080.13,-289.6 1080.13,-258.8 715.2,-258.8"/>
<text text-anchor="start" x="722.2" y="-271" font-family="Arial" font-size="14.00">authority </text>
<text text-anchor="start" x="779.78" y="-271" font-family="Arial" font-size="14.00" fill="#666666">[smallint]</text>
<text text-anchor="start" x="835.02" y="-271" font-family="Arial" font-size="14.00"> 権限</text>
<polygon fill="none" stroke="black" points="715.2,-228 715.2,-258.8 1080.13,-258.8 1080.13,-228 715.2,-228"/>
<text text-anchor="start" x="722.2" y="-240.2" font-family="Arial" font-size="14.00">rank </text>
<text text-anchor="start" x="753.32" y="-240.2" font-family="Arial" font-size="14.00" fill="#666666">[integer]</text>
<text text-anchor="start" x="803.91" y="-240.2" font-family="Arial" font-size="14.00"> 表示順</text>
<polygon fill="none" stroke="black" points="715.2,-197.2 715.2,-228 1080.13,-228 1080.13,-197.2 715.2,-197.2"/>
<text text-anchor="start" x="722.2" y="-209.4" font-family="Arial" font-size="14.00">work </text>
<text text-anchor="start" x="755.65" y="-209.4" font-family="Arial" font-size="14.00" fill="#666666">[smallint]</text>
<text text-anchor="start" x="810.88" y="-209.4" font-family="Arial" font-size="14.00"> 稼動フラグ</text>
<polygon fill="none" stroke="black" points="715.2,-166.4 715.2,-197.2 1080.13,-197.2 1080.13,-166.4 715.2,-166.4"/>
<text text-anchor="start" x="722.2" y="-178.6" font-family="Arial" font-size="14.00">del_flg </text>
<text text-anchor="start" x="767.34" y="-178.6" font-family="Arial" font-size="14.00" fill="#666666">[smallint]</text>
<text text-anchor="start" x="822.58" y="-178.6" font-family="Arial" font-size="14.00"> 削除フラグ</text>
<polygon fill="none" stroke="black" points="715.2,-135.6 715.2,-166.4 1080.13,-166.4 1080.13,-135.6 715.2,-135.6"/>
<text text-anchor="start" x="722.2" y="-147.8" font-family="Arial" font-size="14.00">creator_id </text>
<text text-anchor="start" x="788.34" y="-147.8" font-family="Arial" font-size="14.00" fill="#666666">[integer]</text>
<text text-anchor="start" x="838.93" y="-147.8" font-family="Arial" font-size="14.00"> 作成者ID</text>
<polygon fill="none" stroke="black" points="715.2,-104.8 715.2,-135.6 1080.13,-135.6 1080.13,-104.8 715.2,-104.8"/>
<text text-anchor="start" x="722.2" y="-117" font-family="Arial" font-size="14.00">create_date </text>
<text text-anchor="start" x="800.03" y="-117" font-family="Arial" font-size="14.00" fill="#666666">[timestamp without time zone]</text>
<text text-anchor="start" x="985.22" y="-117" font-family="Arial" font-size="14.00"> 作成日時</text>
<polygon fill="none" stroke="black" points="715.2,-74 715.2,-104.8 1080.13,-104.8 1080.13,-74 715.2,-74"/>
<text text-anchor="start" x="722.2" y="-86.2" font-family="Arial" font-size="14.00">update_date </text>
<text text-anchor="start" x="803.94" y="-86.2" font-family="Arial" font-size="14.00" fill="#666666">[timestamp without time zone]</text>
<text text-anchor="start" x="989.13" y="-86.2" font-family="Arial" font-size="14.00"> 更新日付</text>
<polygon fill="none" stroke="black" points="715.2,-43.2 715.2,-74 1080.13,-74 1080.13,-43.2 715.2,-43.2"/>
<text text-anchor="start" x="722.2" y="-55.4" font-family="Arial" font-size="14.00">login_date </text>
<text text-anchor="start" x="790.7" y="-55.4" font-family="Arial" font-size="14.00" fill="#666666">[timestamp without time zone]</text>
<text text-anchor="start" x="975.89" y="-55.4" font-family="Arial" font-size="14.00"> 最終ログイン日時</text>
</g>
<!-- public.dtb_category&#45;&gt;public.dtb_member -->
<g id="edge6" class="edge">
<title>public.dtb_category:creator_id&#45;&gt;public.dtb_member:member_id</title>
<path fill="none" stroke="black" stroke-dasharray="5,2" d="M1074.54,-753C1196.33,-738.27 1208.81,-459 1081.13,-459"/>
<polygon fill="black" stroke="black" points="1074.73,-752.99 1064.48,-749.09 1069.4,-753.3 1065.08,-753.56 1065.08,-753.56 1065.08,-753.56 1069.4,-753.3 1065.01,-758.07 1074.73,-752.99"/>
<text text-anchor="start" x="1071.41" y="-763.6" font-family="Arial" font-size="10.00">Additional Relation</text>
</g>
<!-- public.dtb_product_categories -->
<g id="node2" class="node">
<title>public.dtb_product_categories</title>
<polygon fill="#efefef" stroke="none" points="43.2,-1294.6 43.2,-1340.6 400.12,-1340.6 400.12,-1294.6 43.2,-1294.6"/>
<polygon fill="none" stroke="black" points="43.2,-1294.6 43.2,-1340.6 400.12,-1340.6 400.12,-1294.6 43.2,-1294.6"/>
<text text-anchor="start" x="50.2" y="-1318.4" font-family="Arial Bold" font-size="18.00">public.dtb_product_categories</text>
<text text-anchor="start" x="268.63" y="-1318.4" font-family="Arial" font-size="14.00">    </text>
<text text-anchor="start" x="299.75" y="-1318.4" font-family="Arial" font-size="14.00" fill="#666666">[BASE TABLE]</text>
<text text-anchor="start" x="174.99" y="-1304" font-family="Arial" font-size="14.00" fill="#333333">商品カテゴリ関連</text>
<polygon fill="none" stroke="black" points="43.2,-1263.8 43.2,-1294.6 400.12,-1294.6 400.12,-1263.8 43.2,-1263.8"/>
<text text-anchor="start" x="50.2" y="-1276" font-family="Arial" font-size="14.00">product_id </text>
<text text-anchor="start" x="119.47" y="-1276" font-family="Arial" font-size="14.00" fill="#666666">[integer]</text>
<text text-anchor="start" x="170.05" y="-1276" font-family="Arial" font-size="14.00"> 商品ID</text>
<polygon fill="none" stroke="black" points="43.2,-1233 43.2,-1263.8 400.12,-1263.8 400.12,-1233 43.2,-1233"/>
<text text-anchor="start" x="50.2" y="-1245.2" font-family="Arial" font-size="14.00">category_id </text>
<text text-anchor="start" x="126.47" y="-1245.2" font-family="Arial" font-size="14.00" fill="#666666">[integer]</text>
<text text-anchor="start" x="177.05" y="-1245.2" font-family="Arial" font-size="14.00"> カテゴリID</text>
<polygon fill="none" stroke="black" points="43.2,-1202.2 43.2,-1233 400.12,-1233 400.12,-1202.2 43.2,-1202.2"/>
<text text-anchor="start" x="50.2" y="-1214.4" font-family="Arial" font-size="14.00">rank </text>
<text text-anchor="start" x="81.32" y="-1214.4" font-family="Arial" font-size="14.00" fill="#666666">[integer]</text>
<text text-anchor="start" x="131.91" y="-1214.4" font-family="Arial" font-size="14.00"> 表示順</text>
</g>
<!-- public.dtb_product_categories&#45;&gt;public.dtb_category -->
<g id="edge1" class="edge">
<title>public.dtb_product_categories:category_id&#45;&gt;public.dtb_category:category_id</title>
<path fill="none" stroke="black" stroke-dasharray="5,2" d="M411.34,-1247.77C483.95,-1238.12 397.55,-1119.03 451.66,-1051.2 538.69,-942.1 591.35,-907.6 730.91,-907.6"/>
<polygon fill="black" stroke="black" points="411.44,-1247.77 401.18,-1243.89 406.11,-1248.09 401.79,-1248.36 401.79,-1248.36 401.79,-1248.36 406.11,-1248.09 401.73,-1252.87 411.44,-1247.77"/>
<text text-anchor="start" x="408.12" y="-1258.4" font-family="Arial" font-size="10.00">Additional Relation</text>
</g>
<!-- public.dtb_category_count -->
<g id="node3" class="node">
<title>public.dtb_category_count</title>
<polygon fill="#efefef" stroke="none" points="504.19,-1294.6 504.19,-1340.6 835.13,-1340.6 835.13,-1294.6 504.19,-1294.6"/>
<polygon fill="none" stroke="black" points="504.19,-1294.6 504.19,-1340.6 835.13,-1340.6 835.13,-1294.6 504.19,-1294.6"/>
<text text-anchor="start" x="511.19" y="-1318.4" font-family="Arial Bold" font-size="18.00">public.dtb_category_count</text>
<text text-anchor="start" x="703.64" y="-1318.4" font-family="Arial" font-size="14.00">    </text>
<text text-anchor="start" x="734.76" y="-1318.4" font-family="Arial" font-size="14.00" fill="#666666">[BASE TABLE]</text>
<text text-anchor="start" x="617.15" y="-1304" font-family="Arial" font-size="14.00" fill="#333333">カテゴリ商品数情報</text>
<polygon fill="none" stroke="black" points="504.19,-1263.8 504.19,-1294.6 835.13,-1294.6 835.13,-1263.8 504.19,-1263.8"/>
<text text-anchor="start" x="511.19" y="-1276" font-family="Arial" font-size="14.00">category_id </text>
<text text-anchor="start" x="587.46" y="-1276" font-family="Arial" font-size="14.00" fill="#666666">[integer]</text>
<text text-anchor="start" x="638.05" y="-1276" font-family="Arial" font-size="14.00"> カテゴリID</text>
<polygon fill="none" stroke="black" points="504.19,-1233 504.19,-1263.8 835.13,-1263.8 835.13,-1233 504.19,-1233"/>
<text text-anchor="start" x="511.19" y="-1245.2" font-family="Arial" font-size="14.00">product_count </text>
<text text-anchor="start" x="603.81" y="-1245.2" font-family="Arial" font-size="14.00" fill="#666666">[integer]</text>
<text text-anchor="start" x="654.4" y="-1245.2" font-family="Arial" font-size="14.00"> 商品数</text>
<polygon fill="none" stroke="black" points="504.19,-1202.2 504.19,-1233 835.13,-1233 835.13,-1202.2 504.19,-1202.2"/>
<text text-anchor="start" x="511.19" y="-1214.4" font-family="Arial" font-size="14.00">create_date </text>
<text text-anchor="start" x="589.03" y="-1214.4" font-family="Arial" font-size="14.00" fill="#666666">[timestamp without time zone]</text>
<text text-anchor="start" x="774.21" y="-1214.4" font-family="Arial" font-size="14.00"> 作成日時</text>
</g>
<!-- public.dtb_category_count&#45;&gt;public.dtb_category -->
<g id="edge3" class="edge">
<title>public.dtb_category_count:category_id&#45;&gt;public.dtb_category:category_id</title>
<path fill="none" stroke="black" stroke-dasharray="5,2" d="M846.08,-1278.2C884.34,-1269.53 850.54,-1206.22 835.13,-1159 810.72,-1084.21 756.36,-1089.98 731.91,-1015.2 717.06,-969.74 683.09,-907.6 730.91,-907.6"/>
<polygon fill="black" stroke="black" points="846.41,-1278.17 836.01,-1274.69 841.1,-1278.7 836.79,-1279.13 836.79,-1279.13 836.79,-1279.13 841.1,-1278.7 836.91,-1283.64 846.41,-1278.17"/>
<text text-anchor="start" x="843.13" y="-1289.2" font-family="Arial" font-size="10.00">Additional Relation</text>
</g>
<!-- public.dtb_category_total_count -->
<g id="node4" class="node">
<title>public.dtb_category_total_count</title>
<polygon fill="#efefef" stroke="none" points="939.7,-1294.6 939.7,-1340.6 1311.63,-1340.6 1311.63,-1294.6 939.7,-1294.6"/>
<polygon fill="none" stroke="black" points="939.7,-1294.6 939.7,-1340.6 1311.63,-1340.6 1311.63,-1294.6 939.7,-1294.6"/>
<text text-anchor="start" x="946.7" y="-1318.4" font-family="Arial Bold" font-size="18.00">public.dtb_category_total_count</text>
<text text-anchor="start" x="1180.14" y="-1318.4" font-family="Arial" font-size="14.00">    </text>
<text text-anchor="start" x="1211.25" y="-1318.4" font-family="Arial" font-size="14.00" fill="#666666">[BASE TABLE]</text>
<text text-anchor="start" x="1061.48" y="-1304" font-family="Arial" font-size="14.00" fill="#333333">カテゴリ商品合計数情報</text>
<polygon fill="none" stroke="black" points="939.7,-1263.8 939.7,-1294.6 1311.63,-1294.6 1311.63,-1263.8 939.7,-1263.8"/>
<text text-anchor="start" x="946.7" y="-1276" font-family="Arial" font-size="14.00">category_id </text>
<text text-anchor="start" x="1022.97" y="-1276" font-family="Arial" font-size="14.00" fill="#666666">[integer]</text>
<text text-anchor="start" x="1073.55" y="-1276" font-family="Arial" font-size="14.00"> カテゴリID</text>
<polygon fill="none" stroke="black" points="939.7,-1233 939.7,-1263.8 1311.63,-1263.8 1311.63,-1233 939.7,-1233"/>
<text text-anchor="start" x="946.7" y="-1245.2" font-family="Arial" font-size="14.00">product_count </text>
<text text-anchor="start" x="1039.32" y="-1245.2" font-family="Arial" font-size="14.00" fill="#666666">[integer]</text>
<text text-anchor="start" x="1089.9" y="-1245.2" font-family="Arial" font-size="14.00"> 商品合計数</text>
<polygon fill="none" stroke="black" points="939.7,-1202.2 939.7,-1233 1311.63,-1233 1311.63,-1202.2 939.7,-1202.2"/>
<text text-anchor="start" x="946.7" y="-1214.4" font-family="Arial" font-size="14.00">create_date </text>
<text text-anchor="start" x="1024.53" y="-1214.4" font-family="Arial" font-size="14.00" fill="#666666">[timestamp without time zone]</text>
<text text-anchor="start" x="1209.72" y="-1214.4" font-family="Arial" font-size="14.00"> 作成日時</text>
</g>
<!-- public.dtb_category_total_count&#45;&gt;public.dtb_category -->
<g id="edge4" class="edge">
<title>public.dtb_category_total_count:category_id&#45;&gt;public.dtb_category:category_id</title>
<path fill="none" stroke="black" stroke-dasharray="5,2" d="M928.71,-1278.19C890.2,-1269.43 922.23,-1205.49 939.7,-1159 969.35,-1080.08 1033.72,-1094.11 1063.41,-1015.2 1080.25,-970.44 1112.23,-907.6 1064.41,-907.6"/>
<polygon fill="black" stroke="black" points="928.42,-1278.16 937.91,-1283.64 933.72,-1278.7 938.03,-1279.13 938.03,-1279.13 938.03,-1279.13 933.72,-1278.7 938.82,-1274.69 928.42,-1278.16"/>
<text text-anchor="start" x="848.31" y="-1263.2" font-family="Arial" font-size="10.00">Additional Relation</text>
</g>
<!-- public.dtb_best_products -->
<g id="node5" class="node">
<title>public.dtb_best_products</title>
<polygon fill="#efefef" stroke="none" points="1415.91,-1402.4 1415.91,-1448.4 1747.41,-1448.4 1747.41,-1402.4 1415.91,-1402.4"/>
<polygon fill="none" stroke="black" points="1415.91,-1402.4 1415.91,-1448.4 1747.41,-1448.4 1747.41,-1402.4 1415.91,-1402.4"/>
<text text-anchor="start" x="1428.68" y="-1426.2" font-family="Arial Bold" font-size="18.00">public.dtb_best_products</text>
<text text-anchor="start" x="1610.16" y="-1426.2" font-family="Arial" font-size="14.00">    </text>
<text text-anchor="start" x="1641.27" y="-1426.2" font-family="Arial" font-size="14.00" fill="#666666">[BASE TABLE]</text>
<text text-anchor="start" x="1534.99" y="-1411.8" font-family="Arial" font-size="14.00" fill="#333333">おすすめ商品情報</text>
<polygon fill="none" stroke="black" points="1415.91,-1371.6 1415.91,-1402.4 1747.41,-1402.4 1747.41,-1371.6 1415.91,-1371.6"/>
<text text-anchor="start" x="1422.91" y="-1383.8" font-family="Arial" font-size="14.00">best_id </text>
<text text-anchor="start" x="1471.95" y="-1383.8" font-family="Arial" font-size="14.00" fill="#666666">[integer]</text>
<text text-anchor="start" x="1522.53" y="-1383.8" font-family="Arial" font-size="14.00"> ベスト商品ID</text>
<polygon fill="none" stroke="black" points="1415.91,-1340.8 1415.91,-1371.6 1747.41,-1371.6 1747.41,-1340.8 1415.91,-1340.8"/>
<text text-anchor="start" x="1422.91" y="-1353" font-family="Arial" font-size="14.00">category_id </text>
<text text-anchor="start" x="1499.18" y="-1353" font-family="Arial" font-size="14.00" fill="#666666">[integer]</text>
<text text-anchor="start" x="1549.77" y="-1353" font-family="Arial" font-size="14.00"> カテゴリID</text>
<polygon fill="none" stroke="black" points="1415.91,-1310 1415.91,-1340.8 1747.41,-1340.8 1747.41,-1310 1415.91,-1310"/>
<text text-anchor="start" x="1422.91" y="-1322.2" font-family="Arial" font-size="14.00">rank </text>
<text text-anchor="start" x="1454.04" y="-1322.2" font-family="Arial" font-size="14.00" fill="#666666">[integer]</text>
<text text-anchor="start" x="1504.62" y="-1322.2" font-family="Arial" font-size="14.00"> 表示順</text>
<polygon fill="none" stroke="black" points="1415.91,-1279.2 1415.91,-1310 1747.41,-1310 1747.41,-1279.2 1415.91,-1279.2"/>
<text text-anchor="start" x="1422.91" y="-1291.4" font-family="Arial" font-size="14.00">product_id </text>
<text text-anchor="start" x="1492.18" y="-1291.4" font-family="Arial" font-size="14.00" fill="#666666">[integer]</text>
<text text-anchor="start" x="1542.77" y="-1291.4" font-family="Arial" font-size="14.00"> 商品ID</text>
<polygon fill="none" stroke="black" points="1415.91,-1248.4 1415.91,-1279.2 1747.41,-1279.2 1747.41,-1248.4 1415.91,-1248.4"/>
<text text-anchor="start" x="1422.91" y="-1260.6" font-family="Arial" font-size="14.00">title </text>
<text text-anchor="start" x="1448.59" y="-1260.6" font-family="Arial" font-size="14.00" fill="#666666">[text]</text>
<text text-anchor="start" x="1478.93" y="-1260.6" font-family="Arial" font-size="14.00"> タイトル</text>
<polygon fill="none" stroke="black" points="1415.91,-1217.6 1415.91,-1248.4 1747.41,-1248.4 1747.41,-1217.6 1415.91,-1217.6"/>
<text text-anchor="start" x="1422.91" y="-1229.8" font-family="Arial" font-size="14.00">comment </text>
<text text-anchor="start" x="1484.38" y="-1229.8" font-family="Arial" font-size="14.00" fill="#666666">[text]</text>
<text text-anchor="start" x="1514.72" y="-1229.8" font-family="Arial" font-size="14.00"> コメント</text>
<polygon fill="none" stroke="black" points="1415.91,-1186.8 1415.91,-1217.6 1747.41,-1217.6 1747.41,-1186.8 1415.91,-1186.8"/>
<text text-anchor="start" x="1422.91" y="-1199" font-family="Arial" font-size="14.00">creator_id </text>
<text text-anchor="start" x="1489.06" y="-1199" font-family="Arial" font-size="14.00" fill="#666666">[integer]</text>
<text text-anchor="start" x="1539.64" y="-1199" font-family="Arial" font-size="14.00"> 作成者ID</text>
<polygon fill="none" stroke="black" points="1415.91,-1156 1415.91,-1186.8 1747.41,-1186.8 1747.41,-1156 1415.91,-1156"/>
<text text-anchor="start" x="1422.91" y="-1168.2" font-family="Arial" font-size="14.00">create_date </text>
<text text-anchor="start" x="1500.75" y="-1168.2" font-family="Arial" font-size="14.00" fill="#666666">[timestamp without time zone]</text>
<text text-anchor="start" x="1685.93" y="-1168.2" font-family="Arial" font-size="14.00"> 作成日時</text>
<polygon fill="none" stroke="black" points="1415.91,-1125.2 1415.91,-1156 1747.41,-1156 1747.41,-1125.2 1415.91,-1125.2"/>
<text text-anchor="start" x="1422.91" y="-1137.4" font-family="Arial" font-size="14.00">update_date </text>
<text text-anchor="start" x="1504.66" y="-1137.4" font-family="Arial" font-size="14.00" fill="#666666">[timestamp without time zone]</text>
<text text-anchor="start" x="1689.84" y="-1137.4" font-family="Arial" font-size="14.00"> 更新日時</text>
<polygon fill="none" stroke="black" points="1415.91,-1094.4 1415.91,-1125.2 1747.41,-1125.2 1747.41,-1094.4 1415.91,-1094.4"/>
<text text-anchor="start" x="1422.91" y="-1106.6" font-family="Arial" font-size="14.00">del_flg </text>
<text text-anchor="start" x="1468.06" y="-1106.6" font-family="Arial" font-size="14.00" fill="#666666">[smallint]</text>
<text text-anchor="start" x="1523.29" y="-1106.6" font-family="Arial" font-size="14.00"> 削除フラグ</text>
</g>
<!-- public.dtb_best_products&#45;&gt;public.dtb_category -->
<g id="edge5" class="edge">
<title>public.dtb_best_products:category_id&#45;&gt;public.dtb_category:category_id</title>
<path fill="none" stroke="black" stroke-dasharray="5,2" d="M1404.75,-1354.03C1352.32,-1329.43 1402.72,-1103.12 1363.66,-1051.2 1274.98,-933.31 1211.93,-907.6 1064.41,-907.6"/>
<polygon fill="black" stroke="black" points="1404.81,-1354.04 1413.65,-1360.53 1410.02,-1355.16 1414.26,-1356.06 1414.26,-1356.06 1414.26,-1356.06 1410.02,-1355.16 1415.53,-1351.73 1404.81,-1354.04"/>
<text text-anchor="start" x="1324.53" y="-1366.2" font-family="Arial" font-size="10.00">Additional Relation</text>
</g>
</g>
</svg>
