<?xml version="1.0" encoding="UTF-8" standalone="no"?>
<!DOCTYPE svg PUBLIC "-//W3C//DTD SVG 1.1//EN"
 "http://www.w3.org/Graphics/SVG/1.1/DTD/svg11.dtd">
<!-- Generated by graphviz version 12.1.2 (20240928.0832)
 -->
<!-- Title: public.dtb_plugin_hookpoint Pages: 1 -->
<svg width="504pt" height="1085pt"
 viewBox="0.00 0.00 503.53 1084.80" xmlns="http://www.w3.org/2000/svg" xmlns:xlink="http://www.w3.org/1999/xlink">
<g id="graph0" class="graph" transform="scale(1 1) rotate(0) translate(4 1080.8)">
<title>public.dtb_plugin_hookpoint</title>
<polygon fill="white" stroke="none" points="-4,4 -4,-1080.8 499.53,-1080.8 499.53,4 -4,4"/>
<!-- public.dtb_plugin_hookpoint -->
<g id="node1" class="node">
<title>public.dtb_plugin_hookpoint</title>
<polygon fill="#efefef" stroke="none" points="46.2,-984.6 46.2,-1030.6 397.14,-1030.6 397.14,-984.6 46.2,-984.6"/>
<polygon fill="none" stroke="black" points="46.2,-984.6 46.2,-1030.6 397.14,-1030.6 397.14,-984.6 46.2,-984.6"/>
<text text-anchor="start" x="54.68" y="-1008.4" font-family="Arial Bold" font-size="18.00">public.dtb_plugin_hookpoint</text>
<text text-anchor="start" x="264.18" y="-1008.4" font-family="Arial" font-size="14.00">    </text>
<text text-anchor="start" x="295.29" y="-1008.4" font-family="Arial" font-size="14.00" fill="#666666">[BASE TABLE]</text>
<text text-anchor="start" x="151.66" y="-994" font-family="Arial" font-size="14.00" fill="#333333">プラグインフックポイント</text>
<polygon fill="none" stroke="black" points="46.2,-953.8 46.2,-984.6 397.14,-984.6 397.14,-953.8 46.2,-953.8"/>
<text text-anchor="start" x="53.2" y="-966" font-family="Arial" font-size="14.00">plugin_hookpoint_id </text>
<text text-anchor="start" x="181.64" y="-966" font-family="Arial" font-size="14.00" fill="#666666">[integer]</text>
<text text-anchor="start" x="232.23" y="-966" font-family="Arial" font-size="14.00"> プラグインフックポイントID</text>
<polygon fill="none" stroke="black" points="46.2,-923 46.2,-953.8 397.14,-953.8 397.14,-923 46.2,-923"/>
<text text-anchor="start" x="53.2" y="-935.2" font-family="Arial" font-size="14.00">plugin_id </text>
<text text-anchor="start" x="113.14" y="-935.2" font-family="Arial" font-size="14.00" fill="#666666">[integer]</text>
<text text-anchor="start" x="163.72" y="-935.2" font-family="Arial" font-size="14.00"> プラグインID</text>
<polygon fill="none" stroke="black" points="46.2,-892.2 46.2,-923 397.14,-923 397.14,-892.2 46.2,-892.2"/>
<text text-anchor="start" x="53.2" y="-904.4" font-family="Arial" font-size="14.00">hook_point </text>
<text text-anchor="start" x="125.59" y="-904.4" font-family="Arial" font-size="14.00" fill="#666666">[text]</text>
<text text-anchor="start" x="155.94" y="-904.4" font-family="Arial" font-size="14.00"> フックポイント</text>
<polygon fill="none" stroke="black" points="46.2,-861.4 46.2,-892.2 397.14,-892.2 397.14,-861.4 46.2,-861.4"/>
<text text-anchor="start" x="53.2" y="-873.6" font-family="Arial" font-size="14.00">callback </text>
<text text-anchor="start" x="107.67" y="-873.6" font-family="Arial" font-size="14.00" fill="#666666">[text]</text>
<text text-anchor="start" x="138.01" y="-873.6" font-family="Arial" font-size="14.00"> コールバック関数</text>
<polygon fill="none" stroke="black" points="46.2,-830.6 46.2,-861.4 397.14,-861.4 397.14,-830.6 46.2,-830.6"/>
<text text-anchor="start" x="53.2" y="-842.8" font-family="Arial" font-size="14.00">use_flg </text>
<text text-anchor="start" x="102.23" y="-842.8" font-family="Arial" font-size="14.00" fill="#666666">[smallint]</text>
<text text-anchor="start" x="157.47" y="-842.8" font-family="Arial" font-size="14.00"> 【2.13】利用フラグ</text>
<polygon fill="none" stroke="black" points="46.2,-799.8 46.2,-830.6 397.14,-830.6 397.14,-799.8 46.2,-799.8"/>
<text text-anchor="start" x="53.2" y="-812" font-family="Arial" font-size="14.00">create_date </text>
<text text-anchor="start" x="131.03" y="-812" font-family="Arial" font-size="14.00" fill="#666666">[timestamp without time zone]</text>
<text text-anchor="start" x="316.22" y="-812" font-family="Arial" font-size="14.00"> 作成日時</text>
<polygon fill="none" stroke="black" points="46.2,-769 46.2,-799.8 397.14,-799.8 397.14,-769 46.2,-769"/>
<text text-anchor="start" x="53.2" y="-781.2" font-family="Arial" font-size="14.00">update_date </text>
<text text-anchor="start" x="134.94" y="-781.2" font-family="Arial" font-size="14.00" fill="#666666">[timestamp without time zone]</text>
<text text-anchor="start" x="320.13" y="-781.2" font-family="Arial" font-size="14.00"> 更新日時</text>
<polygon fill="none" stroke="black" stroke-width="3" points="44.7,-767.5 44.7,-1032.1 398.64,-1032.1 398.64,-767.5 44.7,-767.5"/>
</g>
<!-- public.dtb_plugin -->
<g id="node2" class="node">
<title>public.dtb_plugin</title>
<polygon fill="#efefef" stroke="none" points="55.92,-597.6 55.92,-643.6 387.42,-643.6 387.42,-597.6 55.92,-597.6"/>
<polygon fill="none" stroke="black" points="55.92,-597.6 55.92,-643.6 387.42,-643.6 387.42,-597.6 55.92,-597.6"/>
<text text-anchor="start" x="95.68" y="-621.4" font-family="Arial Bold" font-size="18.00">public.dtb_plugin</text>
<text text-anchor="start" x="223.17" y="-621.4" font-family="Arial" font-size="14.00">    </text>
<text text-anchor="start" x="254.29" y="-621.4" font-family="Arial" font-size="14.00" fill="#666666">[BASE TABLE]</text>
<text text-anchor="start" x="180.83" y="-607" font-family="Arial" font-size="14.00" fill="#333333">プラグイン情報</text>
<polygon fill="none" stroke="black" points="55.92,-566.8 55.92,-597.6 387.42,-597.6 387.42,-566.8 55.92,-566.8"/>
<text text-anchor="start" x="62.92" y="-579" font-family="Arial" font-size="14.00">plugin_id </text>
<text text-anchor="start" x="122.86" y="-579" font-family="Arial" font-size="14.00" fill="#666666">[integer]</text>
<text text-anchor="start" x="173.45" y="-579" font-family="Arial" font-size="14.00"> プラグインID</text>
<polygon fill="none" stroke="black" points="55.92,-536 55.92,-566.8 387.42,-566.8 387.42,-536 55.92,-536"/>
<text text-anchor="start" x="62.92" y="-548.2" font-family="Arial" font-size="14.00">plugin_name </text>
<text text-anchor="start" x="146.99" y="-548.2" font-family="Arial" font-size="14.00" fill="#666666">[text]</text>
<text text-anchor="start" x="177.33" y="-548.2" font-family="Arial" font-size="14.00"> プラグイン名</text>
<polygon fill="none" stroke="black" points="55.92,-505.2 55.92,-536 387.42,-536 387.42,-505.2 55.92,-505.2"/>
<text text-anchor="start" x="62.92" y="-517.4" font-family="Arial" font-size="14.00">plugin_code </text>
<text text-anchor="start" x="142.32" y="-517.4" font-family="Arial" font-size="14.00" fill="#666666">[text]</text>
<text text-anchor="start" x="172.67" y="-517.4" font-family="Arial" font-size="14.00"> プラグインコード</text>
<polygon fill="none" stroke="black" points="55.92,-474.4 55.92,-505.2 387.42,-505.2 387.42,-474.4 55.92,-474.4"/>
<text text-anchor="start" x="62.92" y="-486.6" font-family="Arial" font-size="14.00">class_name </text>
<text text-anchor="start" x="141.52" y="-486.6" font-family="Arial" font-size="14.00" fill="#666666">[text]</text>
<text text-anchor="start" x="171.86" y="-486.6" font-family="Arial" font-size="14.00"> クラス名</text>
<polygon fill="none" stroke="black" points="55.92,-443.6 55.92,-474.4 387.42,-474.4 387.42,-443.6 55.92,-443.6"/>
<text text-anchor="start" x="62.92" y="-455.8" font-family="Arial" font-size="14.00">author </text>
<text text-anchor="start" x="106.51" y="-455.8" font-family="Arial" font-size="14.00" fill="#666666">[text]</text>
<text text-anchor="start" x="136.85" y="-455.8" font-family="Arial" font-size="14.00"> 作成者</text>
<polygon fill="none" stroke="black" points="55.92,-412.8 55.92,-443.6 387.42,-443.6 387.42,-412.8 55.92,-412.8"/>
<text text-anchor="start" x="62.92" y="-425" font-family="Arial" font-size="14.00">author_site_url </text>
<text text-anchor="start" x="159.43" y="-425" font-family="Arial" font-size="14.00" fill="#666666">[text]</text>
<text text-anchor="start" x="189.77" y="-425" font-family="Arial" font-size="14.00"> 作成者サイトURL</text>
<polygon fill="none" stroke="black" points="55.92,-382 55.92,-412.8 387.42,-412.8 387.42,-382 55.92,-382"/>
<text text-anchor="start" x="62.92" y="-394.2" font-family="Arial" font-size="14.00">plugin_site_url </text>
<text text-anchor="start" x="157.1" y="-394.2" font-family="Arial" font-size="14.00" fill="#666666">[text]</text>
<text text-anchor="start" x="187.44" y="-394.2" font-family="Arial" font-size="14.00"> サイトURL</text>
<polygon fill="none" stroke="black" points="55.92,-351.2 55.92,-382 387.42,-382 387.42,-351.2 55.92,-351.2"/>
<text text-anchor="start" x="62.92" y="-363.4" font-family="Arial" font-size="14.00">plugin_version </text>
<text text-anchor="start" x="157.1" y="-363.4" font-family="Arial" font-size="14.00" fill="#666666">[text]</text>
<text text-anchor="start" x="187.44" y="-363.4" font-family="Arial" font-size="14.00"> バージョン</text>
<polygon fill="none" stroke="black" points="55.92,-320.4 55.92,-351.2 387.42,-351.2 387.42,-320.4 55.92,-320.4"/>
<text text-anchor="start" x="62.92" y="-332.6" font-family="Arial" font-size="14.00">compliant_version </text>
<text text-anchor="start" x="179.65" y="-332.6" font-family="Arial" font-size="14.00" fill="#666666">[text]</text>
<text text-anchor="start" x="209.99" y="-332.6" font-family="Arial" font-size="14.00"> 本体対応バージョン</text>
<polygon fill="none" stroke="black" points="55.92,-289.6 55.92,-320.4 387.42,-320.4 387.42,-289.6 55.92,-289.6"/>
<text text-anchor="start" x="62.92" y="-301.8" font-family="Arial" font-size="14.00">plugin_description </text>
<text text-anchor="start" x="179.67" y="-301.8" font-family="Arial" font-size="14.00" fill="#666666">[text]</text>
<text text-anchor="start" x="210.01" y="-301.8" font-family="Arial" font-size="14.00"> 詳細説明</text>
<polygon fill="none" stroke="black" points="55.92,-258.8 55.92,-289.6 387.42,-289.6 387.42,-258.8 55.92,-258.8"/>
<text text-anchor="start" x="62.92" y="-271" font-family="Arial" font-size="14.00">priority </text>
<text text-anchor="start" x="108.82" y="-271" font-family="Arial" font-size="14.00" fill="#666666">[integer]</text>
<text text-anchor="start" x="159.41" y="-271" font-family="Arial" font-size="14.00"> 優先度</text>
<polygon fill="none" stroke="black" points="55.92,-228 55.92,-258.8 387.42,-258.8 387.42,-228 55.92,-228"/>
<text text-anchor="start" x="62.92" y="-240.2" font-family="Arial" font-size="14.00">enable </text>
<text text-anchor="start" x="108.85" y="-240.2" font-family="Arial" font-size="14.00" fill="#666666">[smallint]</text>
<text text-anchor="start" x="164.09" y="-240.2" font-family="Arial" font-size="14.00"> 有効</text>
<polygon fill="none" stroke="black" points="55.92,-197.2 55.92,-228 387.42,-228 387.42,-197.2 55.92,-197.2"/>
<text text-anchor="start" x="62.92" y="-209.4" font-family="Arial" font-size="14.00">free_field1 </text>
<text text-anchor="start" x="132.19" y="-209.4" font-family="Arial" font-size="14.00" fill="#666666">[text]</text>
<text text-anchor="start" x="162.54" y="-209.4" font-family="Arial" font-size="14.00"> 任意項目１</text>
<polygon fill="none" stroke="black" points="55.92,-166.4 55.92,-197.2 387.42,-197.2 387.42,-166.4 55.92,-166.4"/>
<text text-anchor="start" x="62.92" y="-178.6" font-family="Arial" font-size="14.00">free_field2 </text>
<text text-anchor="start" x="132.19" y="-178.6" font-family="Arial" font-size="14.00" fill="#666666">[text]</text>
<text text-anchor="start" x="162.54" y="-178.6" font-family="Arial" font-size="14.00"> 任意項目２</text>
<polygon fill="none" stroke="black" points="55.92,-135.6 55.92,-166.4 387.42,-166.4 387.42,-135.6 55.92,-135.6"/>
<text text-anchor="start" x="62.92" y="-147.8" font-family="Arial" font-size="14.00">free_field3 </text>
<text text-anchor="start" x="132.19" y="-147.8" font-family="Arial" font-size="14.00" fill="#666666">[text]</text>
<text text-anchor="start" x="162.54" y="-147.8" font-family="Arial" font-size="14.00"> 任意項目３</text>
<polygon fill="none" stroke="black" points="55.92,-104.8 55.92,-135.6 387.42,-135.6 387.42,-104.8 55.92,-104.8"/>
<text text-anchor="start" x="62.92" y="-117" font-family="Arial" font-size="14.00">free_field4 </text>
<text text-anchor="start" x="132.19" y="-117" font-family="Arial" font-size="14.00" fill="#666666">[text]</text>
<text text-anchor="start" x="162.54" y="-117" font-family="Arial" font-size="14.00"> 任意項目４</text>
<polygon fill="none" stroke="black" points="55.92,-74 55.92,-104.8 387.42,-104.8 387.42,-74 55.92,-74"/>
<text text-anchor="start" x="62.92" y="-86.2" font-family="Arial" font-size="14.00">create_date </text>
<text text-anchor="start" x="140.76" y="-86.2" font-family="Arial" font-size="14.00" fill="#666666">[timestamp without time zone]</text>
<text text-anchor="start" x="325.94" y="-86.2" font-family="Arial" font-size="14.00"> 作成日時</text>
<polygon fill="none" stroke="black" points="55.92,-43.2 55.92,-74 387.42,-74 387.42,-43.2 55.92,-43.2"/>
<text text-anchor="start" x="62.92" y="-55.4" font-family="Arial" font-size="14.00">update_date </text>
<text text-anchor="start" x="144.67" y="-55.4" font-family="Arial" font-size="14.00" fill="#666666">[timestamp without time zone]</text>
<text text-anchor="start" x="329.85" y="-55.4" font-family="Arial" font-size="14.00"> 更新日時</text>
</g>
<!-- public.dtb_plugin_hookpoint&#45;&gt;public.dtb_plugin -->
<g id="edge1" class="edge">
<title>public.dtb_plugin_hookpoint:plugin_id&#45;&gt;public.dtb_plugin:plugin_id</title>
<path fill="none" stroke="black" stroke-dasharray="5,2" d="M408.28,-936.31C476.31,-907.12 464.05,-582.2 388.42,-582.2"/>
<polygon fill="black" stroke="black" points="408.26,-936.31 397.56,-933.93 403.04,-937.39 398.8,-938.26 398.8,-938.26 398.8,-938.26 403.04,-937.39 399.38,-942.74 408.26,-936.31"/>
<text text-anchor="start" x="405.14" y="-948.4" font-family="Arial" font-size="10.00">Additional Relation</text>
</g>
</g>
</svg>
