<?xml version="1.0" encoding="UTF-8" standalone="no"?>
<!DOCTYPE svg PUBLIC "-//W3C//DTD SVG 1.1//EN"
 "http://www.w3.org/Graphics/SVG/1.1/DTD/svg11.dtd">
<!-- Generated by graphviz version 12.1.2 (20240928.0832)
 -->
<!-- Title: public.dtb_mobile_ext_session_id Pages: 1 -->
<svg width="485pt" height="300pt"
 viewBox="0.00 0.00 485.37 300.40" xmlns="http://www.w3.org/2000/svg" xmlns:xlink="http://www.w3.org/1999/xlink">
<g id="graph0" class="graph" transform="scale(1 1) rotate(0) translate(4 296.4)">
<title>public.dtb_mobile_ext_session_id</title>
<polygon fill="white" stroke="none" points="-4,4 -4,-296.4 481.37,-296.4 481.37,4 -4,4"/>
<!-- public.dtb_mobile_ext_session_id -->
<g id="node1" class="node">
<title>public.dtb_mobile_ext_session_id</title>
<polygon fill="#efefef" stroke="none" points="46.2,-200.2 46.2,-246.2 431.17,-246.2 431.17,-200.2 46.2,-200.2"/>
<polygon fill="none" stroke="black" points="46.2,-200.2 46.2,-246.2 431.17,-246.2 431.17,-200.2 46.2,-200.2"/>
<text text-anchor="start" x="53.2" y="-224" font-family="Arial Bold" font-size="18.00">public.dtb_mobile_ext_session_id</text>
<text text-anchor="start" x="299.68" y="-224" font-family="Arial" font-size="14.00">    </text>
<text text-anchor="start" x="330.8" y="-224" font-family="Arial" font-size="14.00" fill="#666666">[BASE TABLE]</text>
<text text-anchor="start" x="174.51" y="-209.6" font-family="Arial" font-size="14.00" fill="#333333">モバイルセッション情報</text>
<polygon fill="none" stroke="black" points="46.2,-169.4 46.2,-200.2 431.17,-200.2 431.17,-169.4 46.2,-169.4"/>
<text text-anchor="start" x="53.2" y="-181.6" font-family="Arial" font-size="14.00">session_id </text>
<text text-anchor="start" x="123.24" y="-181.6" font-family="Arial" font-size="14.00" fill="#666666">[text]</text>
<text text-anchor="start" x="153.59" y="-181.6" font-family="Arial" font-size="14.00"> セッションID</text>
<polygon fill="none" stroke="black" points="46.2,-138.6 46.2,-169.4 431.17,-169.4 431.17,-138.6 46.2,-138.6"/>
<text text-anchor="start" x="53.2" y="-150.8" font-family="Arial" font-size="14.00">param_key </text>
<text text-anchor="start" x="126.34" y="-150.8" font-family="Arial" font-size="14.00" fill="#666666">[text]</text>
<text text-anchor="start" x="156.69" y="-150.8" font-family="Arial" font-size="14.00"> パラメータキー</text>
<polygon fill="none" stroke="black" points="46.2,-107.8 46.2,-138.6 431.17,-138.6 431.17,-107.8 46.2,-107.8"/>
<text text-anchor="start" x="53.2" y="-120" font-family="Arial" font-size="14.00">param_value </text>
<text text-anchor="start" x="138.03" y="-120" font-family="Arial" font-size="14.00" fill="#666666">[text]</text>
<text text-anchor="start" x="168.37" y="-120" font-family="Arial" font-size="14.00"> パラメータ値</text>
<polygon fill="none" stroke="black" points="46.2,-77 46.2,-107.8 431.17,-107.8 431.17,-77 46.2,-77"/>
<text text-anchor="start" x="53.2" y="-89.2" font-family="Arial" font-size="14.00">url </text>
<text text-anchor="start" x="72.65" y="-89.2" font-family="Arial" font-size="14.00" fill="#666666">[text]</text>
<text text-anchor="start" x="102.99" y="-89.2" font-family="Arial" font-size="14.00"> URL</text>
<polygon fill="none" stroke="black" points="46.2,-46.2 46.2,-77 431.17,-77 431.17,-46.2 46.2,-46.2"/>
<text text-anchor="start" x="53.2" y="-58.4" font-family="Arial" font-size="14.00">create_date </text>
<text text-anchor="start" x="131.03" y="-58.4" font-family="Arial" font-size="14.00" fill="#666666">[timestamp without time zone]</text>
<text text-anchor="start" x="316.22" y="-58.4" font-family="Arial" font-size="14.00"> 作成日時</text>
<polygon fill="none" stroke="black" stroke-width="3" points="44.7,-44.7 44.7,-247.7 432.67,-247.7 432.67,-44.7 44.7,-44.7"/>
</g>
</g>
</svg>
