<?xml version="1.0" encoding="UTF-8" standalone="no"?>
<!DOCTYPE svg PUBLIC "-//W3C//DTD SVG 1.1//EN"
 "http://www.w3.org/Graphics/SVG/1.1/DTD/svg11.dtd">
<!-- Generated by graphviz version 12.1.2 (20240928.0832)
 -->
<!-- Title: public.dtb_bkup Pages: 1 -->
<svg width="428pt" height="239pt"
 viewBox="0.00 0.00 427.98 238.80" xmlns="http://www.w3.org/2000/svg" xmlns:xlink="http://www.w3.org/1999/xlink">
<g id="graph0" class="graph" transform="scale(1 1) rotate(0) translate(4 234.8)">
<title>public.dtb_bkup</title>
<polygon fill="white" stroke="none" points="-4,4 -4,-234.8 423.98,-234.8 423.98,4 -4,4"/>
<!-- public.dtb_bkup -->
<g id="node1" class="node">
<title>public.dtb_bkup</title>
<polygon fill="#efefef" stroke="none" points="46.2,-138.6 46.2,-184.6 373.78,-184.6 373.78,-138.6 46.2,-138.6"/>
<polygon fill="none" stroke="black" points="46.2,-138.6 46.2,-184.6 373.78,-184.6 373.78,-138.6 46.2,-138.6"/>
<text text-anchor="start" x="89" y="-162.4" font-family="Arial Bold" font-size="18.00">public.dtb_bkup</text>
<text text-anchor="start" x="206.49" y="-162.4" font-family="Arial" font-size="14.00">    </text>
<text text-anchor="start" x="237.61" y="-162.4" font-family="Arial" font-size="14.00" fill="#666666">[BASE TABLE]</text>
<text text-anchor="start" x="174.99" y="-148" font-family="Arial" font-size="14.00" fill="#333333">バックアップ</text>
<polygon fill="none" stroke="black" points="46.2,-107.8 46.2,-138.6 373.78,-138.6 373.78,-107.8 46.2,-107.8"/>
<text text-anchor="start" x="53.2" y="-120" font-family="Arial" font-size="14.00">bkup_name </text>
<text text-anchor="start" x="130.25" y="-120" font-family="Arial" font-size="14.00" fill="#666666">[text]</text>
<text text-anchor="start" x="160.6" y="-120" font-family="Arial" font-size="14.00"> バックアップ名</text>
<polygon fill="none" stroke="black" points="46.2,-77 46.2,-107.8 373.78,-107.8 373.78,-77 46.2,-77"/>
<text text-anchor="start" x="53.2" y="-89.2" font-family="Arial" font-size="14.00">bkup_memo </text>
<text text-anchor="start" x="134.13" y="-89.2" font-family="Arial" font-size="14.00" fill="#666666">[text]</text>
<text text-anchor="start" x="164.48" y="-89.2" font-family="Arial" font-size="14.00"> バックアップメモ</text>
<polygon fill="none" stroke="black" points="46.2,-46.2 46.2,-77 373.78,-77 373.78,-46.2 46.2,-46.2"/>
<text text-anchor="start" x="53.2" y="-58.4" font-family="Arial" font-size="14.00">create_date </text>
<text text-anchor="start" x="131.03" y="-58.4" font-family="Arial" font-size="14.00" fill="#666666">[timestamp without time zone]</text>
<text text-anchor="start" x="316.22" y="-58.4" font-family="Arial" font-size="14.00"> 作成日時</text>
<polygon fill="none" stroke="black" stroke-width="3" points="44.7,-44.7 44.7,-186.1 375.28,-186.1 375.28,-44.7 44.7,-44.7"/>
</g>
</g>
</svg>
