<?xml version="1.0" encoding="UTF-8" standalone="no"?>
<!DOCTYPE svg PUBLIC "-//W3C//DTD SVG 1.1//EN"
 "http://www.w3.org/Graphics/SVG/1.1/DTD/svg11.dtd">
<!-- Generated by graphviz version 12.1.2 (20240928.0832)
 -->
<!-- Title: public.mtb_status_image Pages: 1 -->
<svg width="481pt" height="592pt"
 viewBox="0.00 0.00 481.08 592.00" xmlns="http://www.w3.org/2000/svg" xmlns:xlink="http://www.w3.org/1999/xlink">
<g id="graph0" class="graph" transform="scale(1 1) rotate(0) translate(4 588)">
<title>public.mtb_status_image</title>
<polygon fill="white" stroke="none" points="-4,4 -4,-588 477.08,-588 477.08,4 -4,4"/>
<!-- public.mtb_status_image -->
<g id="node1" class="node">
<title>public.mtb_status_image</title>
<polygon fill="#efefef" stroke="none" points="49.47,-138.6 49.47,-184.6 368.43,-184.6 368.43,-138.6 49.47,-138.6"/>
<polygon fill="none" stroke="black" points="49.47,-138.6 49.47,-184.6 368.43,-184.6 368.43,-138.6 49.47,-138.6"/>
<text text-anchor="start" x="56.47" y="-162.4" font-family="Arial Bold" font-size="18.00">public.mtb_status_image</text>
<text text-anchor="start" x="236.94" y="-162.4" font-family="Arial" font-size="14.00">    </text>
<text text-anchor="start" x="268.06" y="-162.4" font-family="Arial" font-size="14.00" fill="#666666">[BASE TABLE]</text>
<text text-anchor="start" x="168.11" y="-148" font-family="Arial" font-size="14.00" fill="#333333">ステータス画像</text>
<polygon fill="none" stroke="black" points="49.47,-107.8 49.47,-138.6 368.43,-138.6 368.43,-107.8 49.47,-107.8"/>
<text text-anchor="start" x="56.47" y="-120" font-family="Arial" font-size="14.00">id </text>
<text text-anchor="start" x="71.25" y="-120" font-family="Arial" font-size="14.00" fill="#666666">[smallint]</text>
<text text-anchor="start" x="126.49" y="-120" font-family="Arial" font-size="14.00"> ID</text>
<polygon fill="none" stroke="black" points="49.47,-77 49.47,-107.8 368.43,-107.8 368.43,-77 49.47,-77"/>
<text text-anchor="start" x="56.47" y="-89.2" font-family="Arial" font-size="14.00">name </text>
<text text-anchor="start" x="95.38" y="-89.2" font-family="Arial" font-size="14.00" fill="#666666">[text]</text>
<text text-anchor="start" x="125.72" y="-89.2" font-family="Arial" font-size="14.00"> 名称</text>
<polygon fill="none" stroke="black" points="49.47,-46.2 49.47,-77 368.43,-77 368.43,-46.2 49.47,-46.2"/>
<text text-anchor="start" x="56.47" y="-58.4" font-family="Arial" font-size="14.00">rank </text>
<text text-anchor="start" x="87.59" y="-58.4" font-family="Arial" font-size="14.00" fill="#666666">[smallint]</text>
<text text-anchor="start" x="142.82" y="-58.4" font-family="Arial" font-size="14.00"> 表示順</text>
<polygon fill="none" stroke="black" stroke-width="3" points="47.97,-44.7 47.97,-186.1 369.93,-186.1 369.93,-44.7 47.97,-44.7"/>
</g>
<!-- public.dtb_product_status -->
<g id="node2" class="node">
<title>public.dtb_product_status</title>
<polygon fill="#efefef" stroke="none" points="43.2,-494.8 43.2,-540.8 374.7,-540.8 374.7,-494.8 43.2,-494.8"/>
<polygon fill="none" stroke="black" points="43.2,-494.8 43.2,-540.8 374.7,-540.8 374.7,-494.8 43.2,-494.8"/>
<text text-anchor="start" x="53.46" y="-518.6" font-family="Arial Bold" font-size="18.00">public.dtb_product_status</text>
<text text-anchor="start" x="239.94" y="-518.6" font-family="Arial" font-size="14.00">    </text>
<text text-anchor="start" x="271.06" y="-518.6" font-family="Arial" font-size="14.00" fill="#666666">[BASE TABLE]</text>
<text text-anchor="start" x="156.44" y="-504.2" font-family="Arial" font-size="14.00" fill="#333333">商品ステータス情報</text>
<polygon fill="none" stroke="black" points="43.2,-464 43.2,-494.8 374.7,-494.8 374.7,-464 43.2,-464"/>
<text text-anchor="start" x="50.2" y="-476.2" font-family="Arial" font-size="14.00">product_status_id </text>
<text text-anchor="start" x="164.61" y="-476.2" font-family="Arial" font-size="14.00" fill="#666666">[smallint]</text>
<text text-anchor="start" x="219.84" y="-476.2" font-family="Arial" font-size="14.00"> 商品ステータスID</text>
<polygon fill="none" stroke="black" points="43.2,-433.2 43.2,-464 374.7,-464 374.7,-433.2 43.2,-433.2"/>
<text text-anchor="start" x="50.2" y="-445.4" font-family="Arial" font-size="14.00">product_id </text>
<text text-anchor="start" x="119.47" y="-445.4" font-family="Arial" font-size="14.00" fill="#666666">[integer]</text>
<text text-anchor="start" x="170.05" y="-445.4" font-family="Arial" font-size="14.00"> 商品ID</text>
<polygon fill="none" stroke="black" points="43.2,-402.4 43.2,-433.2 374.7,-433.2 374.7,-402.4 43.2,-402.4"/>
<text text-anchor="start" x="50.2" y="-414.6" font-family="Arial" font-size="14.00">creator_id </text>
<text text-anchor="start" x="116.34" y="-414.6" font-family="Arial" font-size="14.00" fill="#666666">[integer]</text>
<text text-anchor="start" x="166.93" y="-414.6" font-family="Arial" font-size="14.00"> 作成者ID</text>
<polygon fill="none" stroke="black" points="43.2,-371.6 43.2,-402.4 374.7,-402.4 374.7,-371.6 43.2,-371.6"/>
<text text-anchor="start" x="50.2" y="-383.8" font-family="Arial" font-size="14.00">create_date </text>
<text text-anchor="start" x="128.03" y="-383.8" font-family="Arial" font-size="14.00" fill="#666666">[timestamp without time zone]</text>
<text text-anchor="start" x="313.22" y="-383.8" font-family="Arial" font-size="14.00"> 作成日時</text>
<polygon fill="none" stroke="black" points="43.2,-340.8 43.2,-371.6 374.7,-371.6 374.7,-340.8 43.2,-340.8"/>
<text text-anchor="start" x="50.2" y="-353" font-family="Arial" font-size="14.00">update_date </text>
<text text-anchor="start" x="131.94" y="-353" font-family="Arial" font-size="14.00" fill="#666666">[timestamp without time zone]</text>
<text text-anchor="start" x="317.13" y="-353" font-family="Arial" font-size="14.00"> 更新日時</text>
<polygon fill="none" stroke="black" points="43.2,-310 43.2,-340.8 374.7,-340.8 374.7,-310 43.2,-310"/>
<text text-anchor="start" x="50.2" y="-322.2" font-family="Arial" font-size="14.00">del_flg </text>
<text text-anchor="start" x="95.34" y="-322.2" font-family="Arial" font-size="14.00" fill="#666666">[smallint]</text>
<text text-anchor="start" x="150.58" y="-322.2" font-family="Arial" font-size="14.00"> 削除フラグ</text>
</g>
<!-- public.dtb_product_status&#45;&gt;public.mtb_status_image -->
<g id="edge1" class="edge">
<title>public.dtb_product_status:product_status_id&#45;&gt;public.mtb_status_image:id</title>
<path fill="none" stroke="black" stroke-dasharray="5,2" d="M385.85,-477.31C454.15,-448.12 445.04,-123.2 369.43,-123.2"/>
<polygon fill="black" stroke="black" points="385.82,-477.31 375.11,-474.93 380.59,-478.39 376.35,-479.27 376.35,-479.27 376.35,-479.27 380.59,-478.39 376.93,-483.74 385.82,-477.31"/>
<text text-anchor="start" x="382.7" y="-489.4" font-family="Arial" font-size="10.00">Additional Relation</text>
</g>
</g>
</svg>
